<svg width="26" height="27" viewBox="0 0 26 27" fill="none" xmlns="http://www.w3.org/2000/svg">
<path d="M9.92699 18.6831V10.8299H7.3167V18.6831H9.92727H9.92699ZM8.62239 9.75785C9.53247 9.75785 10.099 9.15481 10.099 8.40119C10.082 7.63039 9.53247 7.04419 8.6397 7.04419C7.74632 7.04419 7.16284 7.63039 7.16284 8.40112C7.16284 9.15475 7.72922 9.75778 8.60529 9.75778H8.62219L8.62239 9.75785ZM11.3718 18.6831H13.9819V14.298C13.9819 14.0636 13.9989 13.8286 14.0679 13.6612C14.2565 13.192 14.686 12.7064 15.4073 12.7064C16.3515 12.7064 16.7295 13.4265 16.7295 14.4823V18.6831H19.3395V14.1803C19.3395 11.7682 18.052 10.6458 16.3346 10.6458C14.9267 10.6458 14.3083 11.4327 13.9647 11.9687H13.9821V10.8302H11.372C11.406 11.5669 11.3718 18.6834 11.3718 18.6834L11.3718 18.6831Z" fill="#7074AF"/>
</svg>
