<svg width="26" height="27" viewBox="0 0 26 27" fill="none" xmlns="http://www.w3.org/2000/svg">
<path d="M10.1121 8.17798C10.5555 8.17798 10.9598 8.21706 11.325 8.29539C11.6901 8.37363 12.0031 8.502 12.2639 8.68003C12.5247 8.85829 12.7269 9.09525 12.8704 9.39091C13.0138 9.68658 13.0856 10.0517 13.0856 10.4864C13.0856 10.9559 12.979 11.3472 12.7661 11.6601C12.5529 11.9731 12.2379 12.2295 11.8206 12.4295C12.3944 12.5947 12.8225 12.884 13.1052 13.2967C13.3875 13.7098 13.5291 14.2076 13.5291 14.79C13.5291 15.2595 13.4379 15.666 13.2552 16.0095C13.0727 16.3531 12.8269 16.6334 12.5184 16.8505C12.2097 17.068 11.8576 17.2287 11.4621 17.3332C11.0641 17.4377 10.6542 17.4903 10.2427 17.4896H5.73022V8.17798H10.1121ZM9.85131 11.9471C10.2165 11.9471 10.5164 11.8602 10.7512 11.6862C10.9859 11.5124 11.1033 11.2297 11.1033 10.8385C11.1033 10.6212 11.0642 10.4429 10.9859 10.3038C10.9077 10.1648 10.8034 10.0559 10.6729 9.9778C10.5425 9.89948 10.3925 9.84537 10.223 9.81472C10.0486 9.78393 9.87188 9.76867 9.69482 9.76912H7.77774V11.9471H9.85131V11.9471ZM9.96865 15.8985C10.1685 15.8985 10.3599 15.8789 10.5424 15.8398C10.725 15.8006 10.8858 15.7354 11.025 15.6441C11.164 15.5529 11.2749 15.4289 11.3575 15.2724C11.4401 15.1159 11.4814 14.916 11.4814 14.6725C11.4814 14.1945 11.3465 13.8532 11.0771 13.6488C10.8075 13.4445 10.4511 13.3423 10.0077 13.3423H7.77774V15.8983L9.96865 15.8985ZM16.1058 15.7029C16.384 15.9727 16.784 16.1072 17.3056 16.1072C17.6793 16.1072 18.0011 16.0139 18.2706 15.8268C18.5401 15.6401 18.7053 15.4422 18.7662 15.2334H20.3963C20.1356 16.042 19.7355 16.6203 19.1966 16.9679C18.6574 17.3157 18.0053 17.4896 17.2403 17.4896C16.7099 17.4896 16.2316 17.4048 15.8057 17.2352C15.3796 17.0657 15.0187 16.8244 14.7233 16.5114C14.4277 16.1985 14.1994 15.8249 14.0386 15.39C13.8777 14.9554 13.7974 14.4771 13.7974 13.9554C13.7974 13.4513 13.8798 12.9818 14.0452 12.5471C14.2102 12.1124 14.4448 11.7364 14.7495 11.4189C15.0536 11.1017 15.4167 10.8517 15.8384 10.6691C16.26 10.4864 16.7273 10.3952 17.2403 10.3952C17.8142 10.3952 18.314 10.5061 18.7402 10.7278C19.1661 10.9494 19.5161 11.2475 19.79 11.6211C20.0639 11.995 20.2615 12.4211 20.3835 12.8991C20.5052 13.3773 20.5485 13.8772 20.514 14.3988H15.6495C15.6755 14.9986 15.8274 15.4335 16.1058 15.7029ZM18.1989 12.1557C17.9773 11.9124 17.6402 11.7905 17.1883 11.7905C16.8926 11.7905 16.6471 11.8406 16.4515 11.9405C16.2558 12.0406 16.0993 12.1643 15.9819 12.3122C15.8646 12.4601 15.7819 12.6166 15.7342 12.7817C15.6863 12.9469 15.658 13.0947 15.6493 13.2251H18.6619C18.575 12.7555 18.4207 12.3992 18.1989 12.1557ZM15.3331 8.65079H19.0971V9.69442H15.3331V8.65079Z" fill="#7074AF"/>
</svg>
