<svg width="26" height="26" viewBox="0 0 26 26" fill="none" xmlns="http://www.w3.org/2000/svg">
<path d="M5.01392 12.893C5.01392 11.4642 5.36586 10.1458 6.06971 8.93768C6.77357 7.72955 7.72957 6.77357 8.93768 6.06971C10.1458 5.36584 11.4642 5.01392 12.893 5.01392C14.3217 5.01392 15.6401 5.36584 16.8482 6.06971C18.0563 6.77357 19.0123 7.72955 19.7162 8.93768C20.4201 10.1458 20.772 11.4642 20.772 12.893C20.772 14.3217 20.4201 15.6401 19.7162 16.8482C19.0123 18.0563 18.0563 19.0123 16.8482 19.7162C15.6401 20.4201 14.3217 20.772 12.893 20.772C11.4642 20.772 10.1458 20.4201 8.93768 19.7162C7.72957 19.0123 6.77357 18.0563 6.06971 16.8482C5.36586 15.6401 5.01392 14.3217 5.01392 12.893ZM6.32184 12.893C6.32184 14.5318 6.87337 15.9763 7.97643 17.2264C8.48069 16.2389 9.27911 15.2987 10.3717 14.4057C11.4642 13.5128 12.5305 12.9507 13.5705 12.7196C13.413 12.3519 13.2606 12.021 13.1136 11.7269C11.3066 12.3047 9.35265 12.5935 7.25156 12.5935C6.84185 12.5935 6.5372 12.5883 6.33759 12.5778C6.33759 12.6198 6.33498 12.6723 6.32971 12.7354C6.32447 12.7984 6.32184 12.8509 6.32184 12.893ZM6.52669 11.2699C6.75781 11.2909 7.09924 11.3014 7.55097 11.3014C9.30537 11.3014 10.9705 11.065 12.5463 10.5923C11.7479 9.17405 10.8707 7.99219 9.91468 7.04671C9.08476 7.46693 8.37302 8.04998 7.77946 8.79585C7.18591 9.54173 6.76832 10.3664 6.52669 11.2699ZM8.87464 18.0774C10.0618 19.0018 11.4012 19.4641 12.893 19.4641C13.6704 19.4641 14.4425 19.317 15.2094 19.0228C14.9993 17.2264 14.5896 15.4878 13.9803 13.8069C13.0138 14.017 12.0394 14.5475 11.0571 15.3985C10.0749 16.2494 9.34738 17.1424 8.87464 18.0774ZM11.2856 6.54245C12.2101 7.49844 13.0663 8.69079 13.8542 10.1195C15.2829 9.52072 16.3597 8.75909 17.0846 7.83461C15.866 6.82609 14.4688 6.32184 12.893 6.32184C12.3572 6.32184 11.8214 6.39538 11.2856 6.54245ZM14.4215 11.2384C14.5791 11.5745 14.7577 12 14.9573 12.5148C15.7347 12.4412 16.5803 12.4045 17.4943 12.4045C18.1457 12.4045 18.7917 12.4202 19.4325 12.4517C19.3485 11.023 18.8337 9.75185 17.8883 8.63827C17.2054 9.6573 16.0498 10.524 14.4215 11.2384ZM15.3512 13.6178C15.887 15.1726 16.2494 16.7694 16.4385 18.4083C17.2684 17.8725 17.946 17.1844 18.4713 16.344C18.9966 15.5035 19.3117 14.5948 19.4168 13.6178C18.6499 13.5653 17.9513 13.539 17.321 13.539C16.7432 13.539 16.0866 13.5653 15.3512 13.6178Z" fill="#7074AF"/>
</svg>
