<svg width="26" height="26" viewBox="0 0 26 26" fill="none" xmlns="http://www.w3.org/2000/svg">
<path d="M9.60748 6.76667V6.76758C9.28972 7.56472 9.03187 8.4245 8.84212 9.32609V9.327C8.2892 9.18536 7.76172 9.01741 7.26327 8.82492L7.26145 8.82582C7.87974 7.97785 8.68051 7.2715 9.6066 6.7667L9.60748 6.76667ZM16.394 6.76758C17.3201 7.27238 18.1208 7.9778 18.7382 8.8258H18.7373C18.2389 9.01737 17.7114 9.18533 17.1585 9.32604L17.1576 9.32695C16.9687 8.4245 16.7109 7.56472 16.3922 6.76658L16.394 6.76758ZM12.5481 5.9187V9.82456C11.5576 9.80005 10.6097 9.69564 9.71812 9.52223L9.71721 9.52314C9.96778 8.31291 10.3446 7.20981 10.8185 6.24644H10.8176C11.3678 6.06849 11.947 5.95591 12.5462 5.91867L12.5481 5.9187ZM13.4533 5.9187V5.9196C14.0525 5.95592 14.6299 6.0685 15.1801 6.24644H15.181C15.6549 7.20971 16.0326 8.31282 16.2832 9.52314H16.2814C15.3898 9.69564 14.442 9.80005 13.4514 9.82457V5.9187L13.4533 5.9187ZM9.56112 10.4065C10.518 10.5926 11.5213 10.7034 12.5489 10.7288L12.548 10.7297V12.5483H9.37497C9.39312 11.8083 9.45668 11.0929 9.55927 10.4056L9.56112 10.4065ZM6.7739 9.59577V9.59758C7.37766 9.83635 8.01592 10.0416 8.68139 10.2095H8.68049C8.56246 10.9676 8.49073 11.7502 8.47167 12.5481H5.9178C5.98499 11.4832 6.28731 10.4818 6.77214 9.59568L6.77396 9.59658L6.7739 9.59577ZM19.2276 9.59577V9.59667C19.7133 10.4819 20.0147 11.4833 20.0819 12.5482V12.5491L17.5299 12.5482H17.529C17.509 11.7502 17.4382 10.9676 17.3193 10.2096H17.3184C17.9839 10.0416 18.6221 9.83551 19.2259 9.59584L19.2276 9.59577ZM16.4404 10.4065C16.543 11.0929 16.6065 11.8083 16.6247 12.5483H13.4526L13.4517 10.7288L13.4508 10.7297C14.4785 10.7034 15.4817 10.5926 16.4395 10.4056L16.4404 10.4065ZM12.5482 15.2712V15.2721H12.5464C11.5196 15.2966 10.5163 15.4074 9.5593 15.5944C9.45671 14.908 9.39315 14.1917 9.375 13.4526H9.37409H12.5481L12.5482 15.2712ZM16.6247 13.4517V13.4536C16.6065 14.1917 16.543 14.908 16.4404 15.5944V15.5953C15.4834 15.4073 14.4802 15.2966 13.4533 15.2712L13.4515 15.2721L13.4524 13.4526L16.6238 13.4517L16.6247 13.4526L16.6247 13.4517ZM8.47175 13.4526V13.4536C8.49081 14.2507 8.56254 15.0333 8.68057 15.7915L8.67966 15.7924C8.01416 15.9595 7.37591 16.1656 6.77307 16.4052C6.28735 15.5191 5.98502 14.5177 5.91873 13.4528H5.91691L8.47175 13.4526ZM20.082 13.4526C20.0148 14.5176 19.7125 15.519 19.2267 16.4051H19.2258C18.623 16.1654 17.9856 15.9593 17.321 15.7914L17.3192 15.7923C17.4382 15.0333 17.509 14.2507 17.529 13.4518L17.5271 13.4527L20.0801 13.4518L20.082 13.4526ZM17.1595 16.6747V16.6757C17.7124 16.8155 18.2399 16.9834 18.7392 17.1759H18.7374C18.1201 18.0239 17.3184 18.7293 16.3923 19.2341C16.7101 18.4361 16.9679 17.5763 17.1577 16.6747L17.1595 16.6747ZM8.84223 16.6747V16.6757C9.03198 17.5763 9.28983 18.4361 9.6076 19.2342V19.2351C8.68153 18.7294 7.88077 18.0239 7.26245 17.1759L7.26154 17.1769C7.75998 16.9844 8.28748 16.8155 8.8413 16.6748L8.84223 16.6747ZM13.4535 16.1754V16.1763C14.444 16.1999 15.3919 16.3052 16.2844 16.4777L16.2835 16.4787C16.032 17.688 15.6552 18.792 15.1813 19.7554H15.1795C14.6302 19.9324 14.051 20.0441 13.4518 20.0822V16.1754L13.4535 16.1754ZM12.5483 16.1754V20.0822C11.9491 20.0441 11.3699 19.9324 10.8206 19.7554H10.8197C10.3458 18.7912 9.96806 17.6881 9.71749 16.4787H9.71567C10.6081 16.3053 11.556 16.2 12.5466 16.1754L12.5483 16.1754ZM13.0005 5.00004V5.00186C8.58164 5.00004 5 8.58164 5 13.0005C5 17.4184 8.58164 21 13.0005 21C17.4184 21 21 17.4184 21 13.0005C21 8.58164 17.4184 5.00004 13.0005 5.00004Z" fill="#7074AF"/>
<path d="M16.394 6.76667V6.76758M16.394 6.76758C17.3201 7.27238 18.1208 7.9778 18.7382 8.8258H18.7373C18.2389 9.01737 17.7114 9.18533 17.1585 9.32604L17.1576 9.32695C16.9687 8.4245 16.7109 7.56472 16.3922 6.76658L16.394 6.76758ZM9.56112 10.4056V10.4065M9.56112 10.4065C10.518 10.5926 11.5213 10.7034 12.5489 10.7288L12.548 10.7297V12.5483H9.37497C9.39312 11.8083 9.45668 11.0929 9.55927 10.4056L9.56112 10.4065ZM16.4404 10.4056V10.4065M16.4404 10.4065C16.543 11.0929 16.6065 11.8083 16.6247 12.5483H13.4526L13.4517 10.7288L13.4508 10.7297C14.4785 10.7034 15.4817 10.5926 16.4395 10.4056L16.4404 10.4065ZM20.082 13.4517V13.4526M20.082 13.4526C20.0148 14.5176 19.7125 15.519 19.2267 16.4051H19.2258C18.623 16.1654 17.9856 15.9593 17.321 15.7914L17.3192 15.7923C17.4382 15.0333 17.509 14.2507 17.529 13.4518L17.5271 13.4527L20.0801 13.4518L20.082 13.4526ZM13.0005 5.00004V5.00186C8.58164 5.00004 5 8.58164 5 13.0005C5 17.4184 8.58164 21 13.0005 21C17.4184 21 21 17.4184 21 13.0005C21 8.58164 17.4184 5.00004 13.0005 5.00004ZM13.0005 5.00004V5.00091M9.60748 6.76667V6.76758C9.28972 7.56472 9.03187 8.4245 8.84212 9.32609V9.327C8.2892 9.18536 7.76172 9.01741 7.26327 8.82492L7.26145 8.82582C7.87974 7.97785 8.68051 7.2715 9.6066 6.7667L9.60748 6.76667ZM12.5481 5.9187V9.82456C11.5576 9.80005 10.6097 9.69564 9.71812 9.52223L9.71721 9.52314C9.96778 8.31291 10.3446 7.20981 10.8185 6.24644H10.8176C11.3678 6.06849 11.947 5.95591 12.5462 5.91867L12.5481 5.9187ZM13.4533 5.9187V5.9196C14.0525 5.95592 14.6299 6.0685 15.1801 6.24644H15.181C15.6549 7.20971 16.0326 8.31282 16.2832 9.52314H16.2814C15.3898 9.69564 14.442 9.80005 13.4514 9.82457V5.9187L13.4533 5.9187ZM6.7739 9.59577V9.59758C7.37766 9.83635 8.01592 10.0416 8.68139 10.2095H8.68049C8.56246 10.9676 8.49073 11.7502 8.47167 12.5481H5.9178C5.98499 11.4832 6.28731 10.4818 6.77214 9.59568L6.77396 9.59658L6.7739 9.59577ZM19.2276 9.59577V9.59667C19.7133 10.4819 20.0147 11.4833 20.0819 12.5482V12.5491L17.5299 12.5482H17.529C17.509 11.7502 17.4382 10.9676 17.3193 10.2096H17.3184C17.9839 10.0416 18.6221 9.83551 19.2259 9.59584L19.2276 9.59577ZM12.5482 15.2712V15.2721H12.5464C11.5196 15.2966 10.5163 15.4074 9.5593 15.5944C9.45671 14.908 9.39315 14.1917 9.375 13.4526H9.37409H12.5481L12.5482 15.2712ZM16.6247 13.4517V13.4536C16.6065 14.1917 16.543 14.908 16.4404 15.5944V15.5953C15.4834 15.4073 14.4802 15.2966 13.4533 15.2712L13.4515 15.2721L13.4524 13.4526L16.6238 13.4517L16.6247 13.4526L16.6247 13.4517ZM8.47175 13.4526V13.4536C8.49081 14.2507 8.56254 15.0333 8.68057 15.7915L8.67966 15.7924C8.01416 15.9595 7.37591 16.1656 6.77307 16.4052C6.28735 15.5191 5.98502 14.5177 5.91873 13.4528H5.91691L8.47175 13.4526ZM17.1595 16.6747V16.6757C17.7124 16.8155 18.2399 16.9834 18.7392 17.1759H18.7374C18.1201 18.0239 17.3184 18.7293 16.3923 19.2341C16.7101 18.4361 16.9679 17.5763 17.1577 16.6747L17.1595 16.6747ZM8.84223 16.6747V16.6757C9.03198 17.5763 9.28983 18.4361 9.6076 19.2342V19.2351C8.68153 18.7294 7.88077 18.0239 7.26245 17.1759L7.26154 17.1769C7.75998 16.9844 8.28748 16.8155 8.8413 16.6748L8.84223 16.6747ZM13.4535 16.1754V16.1763C14.444 16.1999 15.3919 16.3052 16.2844 16.4777L16.2835 16.4787C16.032 17.688 15.6552 18.792 15.1813 19.7554H15.1795C14.6302 19.9324 14.051 20.0441 13.4518 20.0822V16.1754L13.4535 16.1754ZM12.5483 16.1754V20.0822C11.9491 20.0441 11.3699 19.9324 10.8206 19.7554H10.8197C10.3458 18.7912 9.96806 17.6881 9.71749 16.4787H9.71567C10.6081 16.3053 11.556 16.2 12.5466 16.1754L12.5483 16.1754Z" stroke="#7074AF" stroke-width="0.5"/>
</svg>
