<svg width="26" height="26" viewBox="0 0 26 26" fill="none" xmlns="http://www.w3.org/2000/svg">
<path d="M21.598 7.43752H16.551V6.39931C16.551 6.18635 16.3621 6 16.1462 6H10.3977C10.1817 6 9.99282 6.18635 9.99282 6.39931V7.43752H5.40484C5.18893 7.43752 5 7.62387 5 7.83683V12.2291V12.2558V12.309V12.3356V12.3623C5 12.3623 5 12.3889 5.02699 12.3889C5.02699 12.3889 5.02699 12.4155 5.05398 12.4155L5.18892 12.5486C5.18892 12.5486 5.21591 12.5486 5.21591 12.5752C5.2429 12.5752 5.2429 12.5752 5.26989 12.6018H5.29688L5.43182 12.6285V18.6979C5.43182 19.2835 5.91761 19.7627 6.51136 19.7627H20.4106C21.0043 19.7627 21.4901 19.2835 21.4901 18.6979V12.655L21.625 12.6284C21.652 12.6284 21.679 12.6284 21.706 12.6018C21.706 12.6018 21.733 12.6018 21.733 12.5752C21.733 12.5752 21.76 12.5752 21.76 12.5486L21.8679 12.4421C21.8679 12.4421 21.8679 12.4155 21.8949 12.4155C21.8949 12.4155 21.8949 12.3888 21.9219 12.3888C21.9219 12.3622 21.9219 12.3622 21.9489 12.3356V12.309V12.2557V7.83666C22.0029 7.6237 21.814 7.43735 21.5981 7.43735L21.598 7.43752ZM10.8025 6.79863H15.7415V7.43752H10.8025V6.79863ZM20.7074 18.7246C20.7074 18.8577 20.5994 18.9908 20.4375 18.9908H6.53829C6.40335 18.9908 6.26841 18.8843 6.26841 18.7246V12.8147L11.4772 13.9594V15.3171C11.4772 15.53 11.6661 15.7164 11.882 15.7164H14.6619C14.8778 15.7164 15.0667 15.53 15.0667 15.3171V13.9861L20.7073 12.8148L20.7074 18.7246ZM12.2869 14.9178V12.9746H14.257V13.6401V13.6667V14.9178L12.2869 14.9178ZM21.1931 11.9097L15.0937 13.1609V12.5753C15.0937 12.3623 14.9048 12.1759 14.6889 12.1759H11.8821C11.6662 12.1759 11.4772 12.3623 11.4772 12.5753V13.1609L5.80971 11.9364V8.23609H21.1931L21.1931 11.9097Z" fill="#7074AF" stroke="#7074AF" stroke-width="0.5"/>
</svg>
