<svg xmlns="http://www.w3.org/2000/svg" viewBox="0 0 166.23 130.15"><defs><style>.cls-1{fill:#1eb0b6;}.cls-2{fill:#b17746;}.cls-3{fill:#f39556;}.cls-4{fill:#438dcb;}.cls-5{fill:#bb3551;}.cls-6{fill:#f199c1;}.cls-7{fill:#ea5477;}.cls-8{fill:#eb5b7e;}.cls-9{fill:#1d6ab3;}.cls-10{fill:#987bb6;}.cls-11{fill:#3888ba;}.cls-12{fill:#eb5786;}.cls-13{fill:#176cb3;}.cls-14{fill:#1a6cb3;}</style></defs><title>Stef-logo</title><g id="Capa_2" data-name="Capa 2"><path d="M30.48,103.88c-.17-.48-.3-1-.42-1.47a7.54,7.54,0,0,0,4.85,1.93,2.73,2.73,0,0,1,1.32.39h0c-2.95-.11-3.71,2-5.32-.26C30.73,104.28,30.61,104.08,30.48,103.88Z"/><path class="cls-1" d="M36.23,104.73c.57.17,2.5,4,2.75,4.62-.54-1-1-1.85-1.28-1.86a3.74,3.74,0,0,0-.77.05,2.28,2.28,0,0,0-.42-2.55A1.17,1.17,0,0,0,36.23,104.73Z"/><path d="M30.87,104.47c1.61,2.31,2.37.15,5.32.26h0a1.17,1.17,0,0,1,.28.26,2.28,2.28,0,0,1,.42,2.55,5.56,5.56,0,0,0-2.19.94,4.76,4.76,0,0,1-1.7-.17l-.31-.08-.2-.26a16.16,16.16,0,0,1-2.05-4.09C30.61,104.08,30.73,104.28,30.87,104.47Z"/><path class="cls-2" d="M91.14,75.21c3.51,6.18,12.5,8.42,17.19,5.22a50.07,50.07,0,0,0-3.39,4.84c-4.61,0-10-2.55-12.63-6.94h0L91.4,76v0C91.29,75.7,91.21,75.42,91.14,75.21Z"/><path class="cls-3" d="M108.33,80.43c-4.69,3.2-13.68,1-17.19-5.22h0c-.13-.41-.22-.68-.23-.69s0,.28.08.41a1.29,1.29,0,0,1-.09-.16l-.4-1h0l0-.06a11.14,11.14,0,0,0,9.77,4.52,4.82,4.82,0,0,0,.3.66,4.35,4.35,0,0,0,6,1.78,14.07,14.07,0,0,0,3.73-2.73C109.68,78.74,109,79.58,108.33,80.43Z"/><path d="M102.18,56.62c-.1.15-.21.3-.3.45l-.06,0A21.61,21.61,0,0,0,104,52.79a7.44,7.44,0,0,0,.25-.84c1.54-2.1,3.11-4.94,5.38-3.45l0,.07a6.29,6.29,0,0,1,.25,1.32,12.93,12.93,0,0,1-1.39,7,.79.79,0,0,0-.83,0,15.62,15.62,0,0,0-1.47.75c.11-.26.21-.52.31-.78a11.66,11.66,0,0,0,.55-2.7c.09-.74-.35-1.1-1-.77a7.73,7.73,0,0,0-2.25,1.36,15,15,0,0,0-1.42,1.68Z"/><path d="M131.59,21.46c-.25.25-.49.51-.72.79l-.37-.36,0,0c1.52-1.47,1.78-5.21,3.93-5C135.77,17,137,18,138,19.34h0a8.42,8.42,0,0,1,.54,1.63,6.46,6.46,0,0,1,.19,1.15c0,.3.09.59.12.85a5.4,5.4,0,0,0-1.18-.22,5,5,0,0,0-3.49,1.45,11.54,11.54,0,0,0-.15-1.85c-.09-.54-.39-1.38-.74-1.47A2.15,2.15,0,0,0,131.59,21.46Z"/><path d="M108.5,56.85A19.44,19.44,0,0,1,107,59.27a15.73,15.73,0,0,1-5.47,5.12,19,19,0,0,0,4.63-6.77,15.62,15.62,0,0,1,1.47-.75A.79.79,0,0,1,108.5,56.85Z"/><path class="cls-4" d="M134,22.35a11.54,11.54,0,0,1,.15,1.85c-.76.62-1.46,1.35-2.1,2A23.1,23.1,0,0,0,126.71,35c-.45,1.2-.86,2.41-1.24,3.63,1.08-5.08,2.17-10.16,4.44-14.9a8,8,0,0,1,1-1.5c.23-.28.47-.54.72-.79a2.15,2.15,0,0,1,1.68-.58C133.62,21,133.92,21.81,134,22.35Z"/><path class="cls-5" d="M91.14,75.2a1.82,1.82,0,0,1-.15-.27h0c0-.13-.06-.27-.08-.41S91,74.79,91.14,75.2Z"/><path class="cls-6" d="M51.55,61.62a11.33,11.33,0,0,1-2.25,6.53c-1.77,2.47-5.67,3-9.11,2.59.64-.74,1.3-1.46,2-2.17A11.47,11.47,0,0,0,51.55,61.62Z"/><path d="M42.43,47.28A12.54,12.54,0,0,0,31.2,50.77a18.32,18.32,0,0,0-3.72,5l-.39-.2c1.69-3.23,3.75-6.48,6.89-8.1,5.38-2.77,11.13-2,16.54,1.31a1,1,0,0,0,.77,0l1.08,1.8a13.34,13.34,0,0,1,.45,1.73,1,1,0,0,1-.64-.05,14.64,14.64,0,0,0-9.56-2.17c.7-.64,1.41-1.27,2.13-1.9-.5-.25-.84-.44-1.2-.58A6.26,6.26,0,0,0,42.43,47.28Z"/><path class="cls-5" d="M111.62,51.16a12,12,0,0,1,2.3,4.87h0a2,2,0,0,0-.36,2.54,1.19,1.19,0,0,1-.08,1.42c-1.53,2.38-3,4.83-4.62,7.15a17.39,17.39,0,0,1-6.41,6,5.24,5.24,0,0,1-2.22.56l-2.16-3.53v-.27c.77-.08,1.49-.12,2.18-.21l.08.1.22-.14.46-.07c3.79-.76,6.44-3.18,8.58-6.22a13.93,13.93,0,0,0,2.84-9.38A8.86,8.86,0,0,0,111.62,51.16Z"/><path d="M109.3,103.69a45.25,45.25,0,0,0,2.17-5.75,70.62,70.62,0,0,1,3.7-6.64,4,4,0,0,1,.26-.32l.14,0c-.54,1.87-1.15,3.71-1.85,5.53-1.2,3.13-2.59,6.17-5.12,8.5l-.18.16c0-.14.09-.27.14-.4h0A5.26,5.26,0,0,0,109.3,103.69Z"/><path d="M131.65,34.62c.65-1.32,1.32-2.64,2-4l.66.33c-.06.11-.11.21-.16.32a50.17,50.17,0,0,0-3.39,10.12c-.59.64-1.22,1.27-1.86,1.91a12.47,12.47,0,0,1-1.22,1.2,53.87,53.87,0,0,1,4-9.91Z"/><path d="M28,74.54c.3-.53.59-1.05.9-1.56q0,.57-.06,1.14l-.18.39c-1.5,3.39-1.36,4,1.66,6.19l.07,0c-.34,1.42.11,2.17,1.68,3.4a2.41,2.41,0,0,0,.69,2.64c-.48-.16-1-.33-1.43-.54a52.07,52.07,0,0,1-5.41-3.08l0,.3a26.69,26.69,0,0,1-1.16-14c.06.61.15,1.23.25,1.86q1.22-2.25,2.6-4.35a23,23,0,0,0-.05,8.4Z"/><path class="cls-6" d="M33.75,54.82c-3.36,3.16-5,7.23-6.05,11.6-.05.19-.09.38-.13.57q-1.38,2.1-2.6,4.35c-.1-.63-.19-1.25-.25-1.86h0a29.57,29.57,0,0,1,2.72-7.85c2-3.92,4.53-7.32,8.53-9.37a19.76,19.76,0,0,1,6.65-2.16l-1.18,1.09A12.75,12.75,0,0,0,33.75,54.82Z"/><path d="M136.72,28.49a17.61,17.61,0,0,1-1.32,6,20.73,20.73,0,0,1-4.66,6.9,50.17,50.17,0,0,1,3.39-10.12c.05-.11.1-.21.16-.32a8.3,8.3,0,0,1,1.52-2A2.31,2.31,0,0,1,136.72,28.49Z"/><path d="M24.75,82.37a2.88,2.88,0,0,0-.21-1.51,30.45,30.45,0,0,1-1.18-3.78,27,27,0,0,1,2.42-18.95c.42-.84.85-1.71,1.31-2.58l.39.2a28.13,28.13,0,0,0-2.34,6.62,21.8,21.8,0,0,0-.42,7.1h0a26.69,26.69,0,0,0,1.16,14s0,0,0,0a0,0,0,0,0,0,0l-.64-1Z"/><path class="cls-6" d="M88.71,76.31a44.76,44.76,0,0,1-3.93,4.32q-.5.41-1,.72L83.58,81l.23-.22a34.6,34.6,0,0,0,3.6-4.33c.87-1.26,1.69-2.53,2.48-3.83.12.23.25.45.38.67h0a4.6,4.6,0,0,0,.19.52h0A28.35,28.35,0,0,1,88.71,76.31Z"/><path d="M28.89,73q-.45.78-.9,1.59l-.47.85a23,23,0,0,1,.05-8.4,69.91,69.91,0,0,1,6.1-7.94l.56.49a23.27,23.27,0,0,0-4.87,10.38,20.61,20.61,0,0,0-.47,3Z"/><path d="M100.32,73.8a23.18,23.18,0,0,0,2.48-.28c3.8-.77,6.32-3.67,8.46-6.7a13.89,13.89,0,0,0,2.84-9.38,12.33,12.33,0,0,0-.18-1.41h0a2.2,2.2,0,0,1,1.21-.47c1-.08,1-.83,1.12-1.42.35-1.74.59-3.5.91-5.24,1.34-7.25,2.74-14.49,5.34-21.43a23.15,23.15,0,0,1,5.34-8.86,6.88,6.88,0,0,1,5.48-2.14c2.23.2,3.77,1,4.65,2.87-1-1.31-2.2-2.39-3.51-2.51-2.15-.18-2.41,3.56-3.93,5l0,0c-2.55,2.48-4.23,6.36-5.45,9.63a92.55,92.55,0,0,0-3.61,12.69c-.64,2.9-1.19,5.82-1.73,8.74-.32,1.74-.55,3.5-.91,5.24,0,.15,0,.3-.09.46a1,1,0,0,1-1,1,1.94,1.94,0,0,0-1.57,3A1.18,1.18,0,0,1,116,64c-1.53,2.38-3.51,4.27-5.15,6.58a16.85,16.85,0,0,1-1.61,2,15.46,15.46,0,0,1-4.46,3.06c-1.85.9-3.68,1.55-4.92.8a16.12,16.12,0,0,1,0-2.61Z"/><path d="M99.72,64a1.91,1.91,0,0,1,.39.22h0l0,0A1.94,1.94,0,0,1,99.72,64Z"/><path class="cls-6" d="M38.55,67.77a3.17,3.17,0,0,0,2.73.85c.3,0,.6,0,.89-.05-.68.71-1.34,1.43-2,2.17l-.19,0A24.16,24.16,0,0,1,38.35,68Z"/><path d="M59,41.18c-.28-4.77-.2-9.52,1.36-14.11a9.79,9.79,0,0,1,3.17-4.82,4.28,4.28,0,0,0,.55-.49l.3.11a4.26,4.26,0,0,0-.79,1.37A16,16,0,0,0,62.66,29,14.29,14.29,0,0,0,62,30.56a27.54,27.54,0,0,0-1.25,5.74,49.85,49.85,0,0,0-.11,8.38,2,2,0,0,1-.3,1.42c-1,.83-1.92,1.66-2.89,2.48-.05-.74-.09-1.47-.13-2.21s-.16-1.49-.27-2.36l1.63-1.41A2,2,0,0,0,59,41.18Z"/><path class="cls-1" d="M138.22,29.9A15.34,15.34,0,0,1,137.06,38a26.74,26.74,0,0,1-5.75,9.71,23.39,23.39,0,0,1-2,1.67L129,49.2c.42-1.91.81-3.83,1.23-5.74a4.89,4.89,0,0,0,.4-.39A27.34,27.34,0,0,0,137,32.92a35.7,35.7,0,0,0,1.08-3.7A3.12,3.12,0,0,1,138.22,29.9Z"/><path class="cls-6" d="M108.18,110a.92.92,0,0,0,.59-.27,8.27,8.27,0,0,0,2.19-2.51,43.4,43.4,0,0,0,2.35-6.37c.92-3.22,1.63-6.51,2.43-9.77l-.17,0c.91-3.11,1.63-6.28,2.28-9.47.42-2,.8-4.06,1.19-6.1.94-5,1.59-8.28,2.49-13.31a3.07,3.07,0,0,1,.19-.7L124.11,65h0c-.85,4.83-1.61,9.66-2.52,14.47-1.35,7.14-2.7,14.29-5.32,21.1-1.19,3.13-2.58,6.17-5.12,8.5a7.37,7.37,0,0,1-2.74,1.67Z"/><path d="M113.75,75.34A64,64,0,0,1,108.92,80a6.26,6.26,0,0,1-.59.46c.66-.85,1.35-1.69,2.07-2.51h0a18.65,18.65,0,0,0,1.4-1.55l0,0a5.35,5.35,0,0,0,.54-.68.21.21,0,0,0,0-.06c.23-.29.44-.59.66-.9,1.64-2.31,3.08-4.76,4.62-7.15a1.21,1.21,0,0,0,.07-1.42,1.93,1.93,0,0,1,1.57-3c1-.08,1-.83,1.12-1.43s.22-1.12.31-1.68l1,1.42h0a3.07,3.07,0,0,0-.19.7c-.9,5-1.55,8.3-2.49,13.31-.39,2-.77,4.07-1.19,6.1l-.5-.1a3.55,3.55,0,0,0,.06-.47c.21-1.89.59-3.77.93-5.91-1.07,1.4-1.9,2.69-2.92,3.77-1.42,1.5-2.91,3-4.46,4.31l-.38.33a6.89,6.89,0,0,1-1.43.93c1.36-1.64,2.72-3.17,4-4.52.88-.94,2.49-1.13,2.62-2.4.21-1.89.59-3.77.93-5.92C115.61,73,114.78,74.25,113.75,75.34Z"/><path class="cls-7" d="M100.26,69.65c-.69.09-1.41.13-2.18.21v.27L95.52,66a1,1,0,0,1,0-.17c1-.11,2-.14,2.93-.32a11.5,11.5,0,0,0,3-1,.14.14,0,0,0,.11,0s0,0,0,0h0a35.6,35.6,0,0,0-1.51,5C100.13,69.5,100.19,69.58,100.26,69.65Z"/><path class="cls-8" d="M87.33,50.57c.46,0,.52-1,.54-2h0c.17-.66.34-1.3.49-2,0-.21.09-.42.13-.63a5.21,5.21,0,0,1,1.93,2.17,3.64,3.64,0,0,1,.29,1.13,2.08,2.08,0,0,1-2.22,2.08H87.32Z"/><path class="cls-5" d="M109.07,47.24a14.32,14.32,0,0,1,2.55,3.92c-.53-.76-1.18-1.61-2-2.59A5.29,5.29,0,0,0,109.07,47.24Z"/><path class="cls-6" d="M89.89,72.6h0c-.79,1.3-1.61,2.57-2.48,3.83a34.6,34.6,0,0,1-3.6,4.33l-.23.22c-.67.55-1.16.29-1.26-.72-.1-1.17-.22-2.36-.25-3.54h0l.16-.14a43.4,43.4,0,0,0,3.92-4.32c.86-1.05,1.56-2.22,2.4-3.46l.26.67A11.12,11.12,0,0,0,89.89,72.6Z"/><path class="cls-9" d="M46.58,57.87a12.23,12.23,0,0,1-1.5,2.73,13.76,13.76,0,0,1-1.61,1.91,6.87,6.87,0,0,1-3.62,1.94C42,62.17,44.25,60,46.58,57.87Z"/><path d="M138.71,26.59c-.24.87-.45,1.75-.67,2.62-.14-.38-.34-.73-.56-.78a1.57,1.57,0,0,0-.76.06,12.42,12.42,0,0,0-.16-2.09c-.09-.54-.39-1.38-.74-1.46.4-.39-.5-.12,0,0-.67.65-.68,2.62-1.08,3.46s-.73,1.51-1.11,2.25c-.66,1.33-1.33,2.65-2,4h0l-.49-.24a42.36,42.36,0,0,0,1.7-3.91,17.13,17.13,0,0,0,1.31-6.27,5,5,0,0,1,3.49-1.45,5.4,5.4,0,0,1,1.18.22A12.7,12.7,0,0,1,138.71,26.59Z"/><path d="M104.81,75.65a15.46,15.46,0,0,0,4.46-3.06l.33.33c-1,1-2.12,2-3.24,3a10,10,0,0,1-6,2.29,7,7,0,0,1-.43-1.76C101.13,77.2,103,76.55,104.81,75.65Z"/><path d="M135,50.55a2.09,2.09,0,0,0-1.25.6,10.12,10.12,0,0,0-1.49.93,5.25,5.25,0,0,1,1.71-1.41h0a2.92,2.92,0,0,1,1.1-.2Z"/><path class="cls-8" d="M87.87,48.54c0,1.06-.08,2-.54,2C87.51,49.87,87.69,49.2,87.87,48.54Z"/><path d="M101.61,57.47l-.2.33Z"/><path d="M25.23,103.31a21.28,21.28,0,0,1-1.77-6,34.05,34.05,0,0,1,1.2-14.53l.09-.41.48.06.64,1h0c-.14,1.16-.32,2.43-.43,3.7a29.79,29.79,0,0,0-.12,3.39,32.19,32.19,0,0,0-.2,10.23,22.19,22.19,0,0,0,.71,3.2c-.2-.23-.4-.45-.59-.68C25.24,103.32,25.23,103.32,25.23,103.31Z"/><path class="cls-6" d="M68.4,32.67a20.16,20.16,0,0,0,2.53-3.9h0a2,2,0,0,1,.69,1.33,9.61,9.61,0,0,1-.34,3.22,18.66,18.66,0,0,1-4.36,6.59,47.41,47.41,0,0,1,0-5.48h0c.16-.2.32-.41.47-.62h0C67.77,33.43,68.09,33.06,68.4,32.67Z"/><path d="M66.58,21.15a2.45,2.45,0,0,0-1.85.38,2.33,2.33,0,0,0-.37.34l-.3-.11c1.91-2,2.48-5.52,5-4.28a8.59,8.59,0,0,1,1.51,1l0,0a5.1,5.1,0,0,1,.63.89c-1.41-.56-2.56,1.51-3.79,3.51,0-.1,0-.2,0-.3A1.8,1.8,0,0,0,66.58,21.15Z"/><path d="M102.34,56.41l-.16.21Z"/><path d="M92.85,60.11c1.74-4,4.09-7.65,8-9.92l.81.07a2.85,2.85,0,0,0-.49.42,20.72,20.72,0,0,0-4.91,9.39,31.69,31.69,0,0,0-1.79,3.54l-.18.42a76.32,76.32,0,0,1-4,7.9c-.25-.25-.45-.45-.44-.4,0,.29.11.57.18.85,0,0,0,0,0,.05l-1.18-3c0-.09,0-.18,0-.27s-.05-.25-.12-.54l-.09.14-.29-.74h0l-.13-.1A42.31,42.31,0,0,0,92.85,60.11Z"/><path class="cls-1" d="M29.18,78.89a25.37,25.37,0,0,1-.35-4.77,47.78,47.78,0,0,1,9.38-13.36c2-2.08,4.06-4.11,6.13-6.15h0a14.08,14.08,0,0,1,2.3.22,4.61,4.61,0,0,1,.64.16,10.62,10.62,0,0,1-.69,2.88h0C44.25,60,42,62.17,39.85,64.45a7.33,7.33,0,0,1-2.25,0c.15.78.25,1.41.39,2A66.33,66.33,0,0,0,29.18,78.89Z"/><path d="M46.59,57.87,49,55.73c-.51-.24-.85-.44-1.2-.57L47.28,55a10.82,10.82,0,0,0-.06-2.66l-.35-.21-.16.15c-.45-.23-.28-.44-.55-.59h0s-.47-.22-.08,0A6.15,6.15,0,0,0,45,51.33a13.41,13.41,0,0,0-3.55-.15l1.18-1.09a14.64,14.64,0,0,1,9.56,2.17,1,1,0,0,0,.64.05,16.2,16.2,0,0,1-.69,7.75,12.55,12.55,0,0,1-.58,1.56,11.67,11.67,0,0,0-.11-1.75l-.36-.2c-.58.58-1.17,1.15-1.75,1.74a10.87,10.87,0,0,0,.45-5h0c-2.08,2.07-4.18,4.11-6.25,6.19l-.05-.06a13.76,13.76,0,0,0,1.61-1.91,12.23,12.23,0,0,0,1.5-2.73Z"/><path class="cls-1" d="M46.73,52.28h0l.16-.15.35.21A10.82,10.82,0,0,1,47.28,55a4.61,4.61,0,0,0-.64-.16,14.08,14.08,0,0,0-2.3-.22l2.12-2.09,0,0Z"/><path d="M70.93,28.77a20.16,20.16,0,0,1-2.53,3.9c-.31.39-.63.76-1,1.14a14.16,14.16,0,0,0,2.17-4,6.26,6.26,0,0,0,.25-1.14h0a2.18,2.18,0,0,1,.92,0Z"/><path d="M42.85,54.7a83.42,83.42,0,0,0-14,18.24,20.61,20.61,0,0,1,.47-3,23.27,23.27,0,0,1,4.87-10.38,16.92,16.92,0,0,1,1.18-1.22A12.82,12.82,0,0,1,42.85,54.7Z"/><path class="cls-1" d="M26.32,86.27a38.9,38.9,0,0,0-1,4.31,29.79,29.79,0,0,1,.12-3.39c.11-1.27.29-2.54.43-3.7l0,0h0c.09.28.2.56.3.84A2.75,2.75,0,0,1,26.32,86.27Z"/><path class="cls-1" d="M28,91.24a21.34,21.34,0,0,0,1.32,10.43,11.34,11.34,0,0,1-1-1.25,17.35,17.35,0,0,1-3-9.84,38.9,38.9,0,0,1,1-4.31,2.75,2.75,0,0,0-.12-1.91c-.1-.28-.21-.56-.3-.84l2.51,4.12C28.27,88.77,28.1,90,28,91.24Z"/><path d="M33.67,59.05a104.85,104.85,0,0,1,7.77-7.87,13.41,13.41,0,0,1,3.55.15,6.15,6.15,0,0,1,1.11.33c-1.12,1-2.21,2-3.25,3a12.82,12.82,0,0,0-7.44,3.62,16.92,16.92,0,0,0-1.18,1.22Z"/><path class="cls-10" d="M124.11,65l1.82,2.73a.66.66,0,0,0-.05.15C125,72.93,124.2,78,123.25,83c-1.35,7.13-2.7,14.28-5.31,21.1-1.2,3.13-2.6,6.16-5.13,8.49a6.52,6.52,0,0,1-6,1.83c-2.33-.47-3.54-.64-5.76-5.41,1.27,1.55,2.68,1.63,4.1,1.91a6.21,6.21,0,0,0,3.22-.15,7.37,7.37,0,0,0,2.74-1.67c2.54-2.33,3.93-5.37,5.12-8.5,2.62-6.81,4-14,5.32-21.1C122.5,74.68,123.26,69.85,124.11,65Z"/><path class="cls-11" d="M91.14,75.21c.07.21.15.49.25.79L91,75h0a.3.3,0,0,1,0-.1,1.82,1.82,0,0,0,.15.27Z"/><path d="M116.68,71.56c-.34,2.15-.72,4-.93,5.92-.13,1.27-1.74,1.46-2.62,2.4-1.26,1.35-2.62,2.88-4,4.52a9.7,9.7,0,0,1-4.21.87,50.07,50.07,0,0,1,3.39-4.84,6.26,6.26,0,0,0,.59-.46,64,64,0,0,0,4.83-4.63C114.78,74.25,115.61,73,116.68,71.56Z"/><path d="M47.77,55.16c.35.13.69.33,1.2.57l-2.38,2.14A10.62,10.62,0,0,0,47.28,55Z"/><path d="M83,69.1c-.3,1.67-.58,3.35-.83,5,0,.37-.09.74-.11,1.12a6.87,6.87,0,0,0-.54.54,4.92,4.92,0,0,0-.8,1.41s-.06-.07-.1-.43a36.59,36.59,0,0,1-.24-4.44A32.42,32.42,0,0,0,83,69.1Z"/><path class="cls-10" d="M33.75,54.82a12.75,12.75,0,0,1,7.69-3.64,104.85,104.85,0,0,0-7.77,7.87A69.91,69.91,0,0,0,27.57,67c0-.19.08-.38.13-.57C28.71,62.05,30.39,58,33.75,54.82Z"/><path d="M125,59.36c.88-.28,1.66-.47,2.37-.76,0,.09,0,.18,0,.27h0l-2,.86c-1,.34-2.27,1-3.25,1.27a.69.69,0,0,0-.35.42l-1-1.42h0c.21-1.19.39-2.37.61-3.56.61-3.34,1.24-6.68,2-10l.52.77a.64.64,0,0,0-.12.23c-.46,2.54-.87,5.08-1.33,7.86a22.17,22.17,0,0,0,2.72-.91l.7-.25C125.58,55.83,125.31,57.55,125,59.36Z"/><path d="M24.75,82.37l-.09.41a34.05,34.05,0,0,0-1.2,14.53,21.28,21.28,0,0,0,1.77,6,20.15,20.15,0,0,1-4.32-10A34.21,34.21,0,0,1,22.1,78.73a2.56,2.56,0,0,0,.06-1.34l1.2-.31a30.45,30.45,0,0,0,1.18,3.78A2.88,2.88,0,0,1,24.75,82.37Z"/><path d="M118.34,75.06c-.34,2.14-.72,4-.93,5.91a3.55,3.55,0,0,1-.06.47,5.39,5.39,0,0,1-1.48,2.64c-1,1-1.87,2.07-2.74,3.15a52.56,52.56,0,0,0-3.84,5.37c.82-3,1.49-6.06,2.24-9.09l-.31-.08-.26-.29c1.55-1.36,3-2.81,4.46-4.31C116.44,77.75,117.27,76.46,118.34,75.06Z"/><path class="cls-1" d="M129.28,49.39l.24.48a14,14,0,0,1-2.52,1,1.17,1.17,0,0,0-.47.3h0l-2.63-4a1.24,1.24,0,0,1,.55-.39,14.58,14.58,0,0,0,3-1.24l0,.11s0,0,0-.13a14.21,14.21,0,0,0,2.85-2.11c-.42,1.91-.81,3.83-1.23,5.74Z"/><path d="M137.48,28.43c.22.05.42.4.56.78h0a35.7,35.7,0,0,1-1.08,3.7,27.34,27.34,0,0,1-6.29,10.15,4.89,4.89,0,0,1-.4.39c.16-.68.31-1.36.47-2a20.73,20.73,0,0,0,4.66-6.9,17.61,17.61,0,0,0,1.32-6A1.57,1.57,0,0,1,137.48,28.43Z"/><path class="cls-7" d="M103.19,67.92a15.53,15.53,0,0,1-2.63,1.69l-.3,0c-.07-.07-.13-.15-.2-.23a35.6,35.6,0,0,1,1.51-5h0A15.73,15.73,0,0,0,107,59.27a19.44,19.44,0,0,0,1.46-2.42.86.86,0,0,1,.22.79,11.47,11.47,0,0,1-.55,2.69A19.28,19.28,0,0,1,103.19,67.92Z"/><path d="M133.93,50.67a5.25,5.25,0,0,0-1.71,1.41,10.6,10.6,0,0,0-1.76,1.63,12.06,12.06,0,0,1-1.8.66l-.68-1c1.43-.58,3.31-1.39,5.33-2.41A4.36,4.36,0,0,1,133.93,50.67Z"/><path d="M72.15,23.82a12,12,0,0,1-1.22,4.95h0l-.14-.07a2.18,2.18,0,0,0-.92,0A12.07,12.07,0,0,0,70,26.61a1.83,1.83,0,0,0-.83-1.41,2.43,2.43,0,0,0-1.84.38,1.24,1.24,0,0,0-.22.18,8.78,8.78,0,0,0,.34-2.9c1.23-2,2.38-4.07,3.79-3.51h0A8.65,8.65,0,0,1,72.15,23.82Z"/><path class="cls-7" d="M103.19,67.92a19.28,19.28,0,0,0,5-7.59,11.47,11.47,0,0,0,.55-2.69.86.86,0,0,0-.22-.79,12.93,12.93,0,0,0,1.39-7,6.29,6.29,0,0,0-.25-1.32c.8,1,1.45,1.83,2,2.59a8.86,8.86,0,0,1,.82,2.78,13.93,13.93,0,0,1-2.84,9.38c-2.14,3-4.79,5.46-8.58,6.22l-.46.07A15.53,15.53,0,0,0,103.19,67.92Z"/><path class="cls-8" d="M88.65,45a14.65,14.65,0,0,1,1.77,3.17A5.21,5.21,0,0,0,88.49,46C88.55,45.62,88.61,45.28,88.65,45Z"/><path d="M109.07,47.24a5.29,5.29,0,0,1,.57,1.33l0-.07c-2.27-1.49-3.84,1.35-5.38,3.45a16.75,16.75,0,0,0,.3-1.86c.08-.74-.35-1.1-1.06-.77a12.24,12.24,0,0,0-1.75.94l-.81-.07c2.17-1.26,3.24-4.77,5.7-4.48A4.42,4.42,0,0,1,109.07,47.24Z"/><path d="M63.47,39l-1.68-2.6-1-.11A27.54,27.54,0,0,1,62,30.56,14.29,14.29,0,0,1,62.66,29c0,1.11,0,2.25.05,3.41a27,27,0,0,0,3-3.78,27.94,27.94,0,0,0-.46,7.66c-.41.45-.84.9-1.26,1.35A1.52,1.52,0,0,0,63.47,39Z"/><path d="M122,44.33l1.41,2.12c-.76,3.31-1.39,6.65-2,10-.22,1.19-.4,2.37-.61,3.56l-.8-1.2-1.26-.15c0-.16.06-.31.09-.46.36-1.74.59-3.5.91-5.24.54-2.92,1.09-5.84,1.73-8.74Z"/><path class="cls-6" d="M43.55,47.61c.36.14.7.33,1.2.58-.72.63-1.43,1.26-2.13,1.9A19.76,19.76,0,0,0,36,52.25c-4,2-6.56,5.45-8.53,9.37a29.57,29.57,0,0,0-2.72,7.85,21.8,21.8,0,0,1,.42-7.1,28.13,28.13,0,0,1,2.34-6.62,18.32,18.32,0,0,1,3.72-5,12.54,12.54,0,0,1,11.23-3.49A6.26,6.26,0,0,1,43.55,47.61Z"/><path d="M41.11,65c-.73.75-1.45,1.52-2.16,2.3h0c-.24,0-.48,0-.72-.08A4,4,0,0,1,38,66.6s0-.08,0-.12c.6-.69,1.22-1.37,1.86-2a6.87,6.87,0,0,0,3.62-1.94l.05.06C42.71,63.37,41.91,64.19,41.11,65Z"/><path d="M102.8,73.52a23.18,23.18,0,0,1-2.48.28l-.09-.14a5.24,5.24,0,0,0,2.22-.56,17.39,17.39,0,0,0,6.41-6c1.64-2.32,3.09-4.77,4.62-7.15a1.19,1.19,0,0,0,.08-1.42,2,2,0,0,1,.36-2.54,12.33,12.33,0,0,1,.18,1.41,13.89,13.89,0,0,1-2.84,9.38C109.12,69.85,106.6,72.75,102.8,73.52Z"/><path d="M112.42,75.58a4.53,4.53,0,0,0,.78-2.15c.2-1.9.58-3.77.93-5.92-1.07,1.4-1.9,2.69-2.93,3.78-.52.55-1.06,1.1-1.6,1.63l-.33-.33a16.85,16.85,0,0,0,1.61-2c1.64-2.31,3.62-4.2,5.15-6.58a1.18,1.18,0,0,0,.08-1.42,1.94,1.94,0,0,1,1.57-3,1,1,0,0,0,1-1l1.26.15.8,1.2h0c-.09.56-.19,1.12-.31,1.68s-.15,1.35-1.12,1.43a1.93,1.93,0,0,0-1.57,3,1.21,1.21,0,0,1-.07,1.42c-1.54,2.39-3,4.84-4.62,7.15C112.86,75,112.65,75.29,112.42,75.58Z"/><path d="M80.76,77.2a4.92,4.92,0,0,1,.8-1.41,6.87,6.87,0,0,1,.54-.54q0,.73,0,1.47h0a6.19,6.19,0,0,1-1.14.8Z"/><path class="cls-3" d="M111.2,71.29c1-1.09,1.86-2.38,2.93-3.78-.35,2.15-.73,4-.93,5.92a4.53,4.53,0,0,1-.78,2.15.21.21,0,0,1,0,.06c-.17.23-.35.45-.54.68l0,0-.16.17c-.42.45-.84.92-1.24,1.38h0a14.07,14.07,0,0,1-3.73,2.73,4.35,4.35,0,0,1-6-1.78,4.82,4.82,0,0,1-.3-.66,10,10,0,0,0,6-2.29c1.12-1,2.2-2,3.24-3C110.14,72.39,110.68,71.84,111.2,71.29Z"/><path class="cls-6" d="M112.38,75.64a5.35,5.35,0,0,1-.54.68C112,76.09,112.21,75.87,112.38,75.64Z"/><path d="M106,53.37c.7-.33,1.14,0,1,.77a11.66,11.66,0,0,1-.55,2.7,8.38,8.38,0,0,1-.35.8,3.8,3.8,0,0,0-.73.58A17.12,17.12,0,0,0,102.65,62l-1.57,1.43-1,.72a1.91,1.91,0,0,0-.39-.22h0c-.49-.47.5-.36-.52-1a23.66,23.66,0,0,1,1.91-4.59l.24-.44a.47.47,0,0,0,.06-.09l.2-.33,0,0,.09-.15.15-.21c.09-.15.2-.3.3-.45l.16-.21a15,15,0,0,1,1.42-1.68A7.73,7.73,0,0,1,106,53.37Z"/><path d="M58.68,42.6,57.05,44l0-.27L51.41,48.4a1.51,1.51,0,0,0,.11.22l-.11.09-.12.07a1,1,0,0,1-.77,0C45.11,45.5,39.36,44.68,34,47.45c-3.14,1.62-5.2,4.87-6.89,8.1-.46.87-.89,1.74-1.31,2.58a27,27,0,0,0-2.42,18.95l-1.2.31a4.69,4.69,0,0,0-.17-.58,27,27,0,0,1,1.23-22.73c2-3.93,4.54-7.32,8.53-9.38,5.39-2.77,10.81-3.26,16.22,0a1,1,0,0,0,.89-.05c2.45-2,4.88-4,7.26-6.11a2,2,0,0,0,.31-1.42c-.28-4.77-.2-9.52,1.36-14.11A9.65,9.65,0,0,1,61,18.2c2.37-1.8,5.06-2.47,7.79-1.12a5.89,5.89,0,0,1,1.8,1.36,8.59,8.59,0,0,0-1.51-1c-2.5-1.24-3.07,2.3-5,4.28a4.28,4.28,0,0,1-.55.49,9.79,9.79,0,0,0-3.17,4.82C58.78,31.66,58.7,36.41,59,41.18A2,2,0,0,1,58.68,42.6Z"/><path d="M113.13,87.23c.87-1.08,1.78-2.13,2.74-3.15a5.39,5.39,0,0,0,1.48-2.64l.5.1c-.65,3.19-1.37,6.36-2.28,9.47l-.14,0a4,4,0,0,0-.26.32,70.62,70.62,0,0,0-3.7,6.64l.18-.61c.92-3.23,1.63-6.51,2.43-9.77l-.31-.08c0,.06-.09.11-.13.16Z"/><path class="cls-11" d="M142.67,28.89c.06.26.17.51.25.77a18.24,18.24,0,0,1,.11,4.8,26,26,0,0,1-1.86,6,27.51,27.51,0,0,1-6.12,10,1.89,1.89,0,0,0-1.11.21h0a4.36,4.36,0,0,0-.62.26c-2,1-3.9,1.83-5.33,2.41l-1.45-2.16a1.17,1.17,0,0,1,.47-.3,14,14,0,0,0,2.52-1,15.16,15.16,0,0,0,3.71-2.74A27.48,27.48,0,0,0,139.51,37c.75-2,1.18-4.22,1.75-6.33a10.74,10.74,0,0,0,.19-4,7.64,7.64,0,0,0-.13-1.06C141.71,26.47,142.13,27.54,142.67,28.89Z"/><path d="M99.72,64a1.94,1.94,0,0,0,.34.26l0,0,.06,0c.24-.16.93.29,1.25.24a11.5,11.5,0,0,1-3,1c-.93.18-1.89.21-2.93.32a1,1,0,0,0,0,.17l-1.19-2,.18-.42a31.69,31.69,0,0,1,1.79-3.54q-.24.9-.45,1.8l.28.33A19,19,0,0,0,99,60.37,17.34,17.34,0,0,0,101.82,57l.06,0-.15.21-.09.15,0,0-.2.33a.47.47,0,0,1-.06.09l-.24.44a23.66,23.66,0,0,0-1.91,4.59c-.09.27-.16.54-.24.8.67.49.52.17.76.24Z"/><path class="cls-1" d="M141.45,26.69a10.74,10.74,0,0,1-.19,4c-.57,2.11-1,4.28-1.75,6.33a27.48,27.48,0,0,1-6.28,10.15,15.16,15.16,0,0,1-3.71,2.74l-.24-.48a23.39,23.39,0,0,0,2-1.67A26.74,26.74,0,0,0,137.06,38a15.34,15.34,0,0,0,1.16-8.11,3.12,3.12,0,0,0-.18-.68h0c.22-.87.43-1.75.67-2.62a12.7,12.7,0,0,0,.12-3.62c1.15.37,1.78,1.15,2.49,2.66A7.64,7.64,0,0,1,141.45,26.69Z"/><path class="cls-1" d="M140.42,23.56a8.45,8.45,0,0,1,.9,2.07c-.71-1.51-1.34-2.29-2.49-2.66,0-.26-.07-.55-.12-.85a6.46,6.46,0,0,0-.19-1.15,8.42,8.42,0,0,0-.54-1.63A25.56,25.56,0,0,1,140.42,23.56Z"/><path class="cls-5" d="M137,51.51c2.69,2.64,4.31,9.4.31,11.33a81.5,81.5,0,0,1-7.78,3.44c-.92.19-2,.66-3,1a.8.8,0,0,0-.58.5L124.11,65h0c0-.2.08-.41.11-.61a.82.82,0,0,1,.63-.66c1-.31,2.1-.78,3-1,0,0,.51-.19,1.28-.51a70,70,0,0,0,6.51-3A4.92,4.92,0,0,0,137,51.51Z"/><path class="cls-12" d="M137,51.51a4.92,4.92,0,0,1-1.34,7.81,70,70,0,0,1-6.51,3l-.08-.19.31-.13a24.91,24.91,0,0,1,.48-4.18c1.78-.8,3.65-1.67,4.75-2.29,2.32-1.2,2.72-3.61,1.62-4.59a4.54,4.54,0,0,1,.76.6Z"/><path d="M136.56,26.4a12.42,12.42,0,0,1,.16,2.09,2.31,2.31,0,0,0-.91.52,8.3,8.3,0,0,0-1.52,2l-.66-.33q.57-1.11,1.11-2.25c.4-.84.41-2.81,1.08-3.46C136.17,25,136.47,25.86,136.56,26.4Z"/><path class="cls-6" d="M137,51.49a4.54,4.54,0,0,0-.76-.6l0,0,0,0A3.5,3.5,0,0,1,137,51.49Z"/><path d="M136.23,50.89c1.1,1,.7,3.39-1.62,4.59-1.1.62-3,1.49-4.75,2.29a15.35,15.35,0,0,1,1.57-4.53,15.55,15.55,0,0,0,3.46-2.62l.07-.07a2,2,0,0,1,1,.19h0l.22.12Z"/><path d="M136.17,50.84l0,0-.22-.12.18.09Z"/><path d="M136.16,50.83l-.18-.09h0a2.47,2.47,0,0,0-.79-.27A1.75,1.75,0,0,1,136.16,50.83Z"/><path d="M135.82,24.94c-.5-.12.4-.39,0,0Z"/><path d="M135.18,50.47a2.47,2.47,0,0,1,.79.27,2,2,0,0,0-1-.19l.08-.08Z"/><path class="cls-6" d="M135.18,50.47h0Z"/><path class="cls-6" d="M135.05,50.46h0a2.92,2.92,0,0,0-1.1.2A1.89,1.89,0,0,1,135.05,50.46Z"/><path d="M135,50.55l-.07.07a15.55,15.55,0,0,1-3.46,2.62,6.77,6.77,0,0,1,.79-1.16,10.12,10.12,0,0,1,1.49-.93A2.09,2.09,0,0,1,135,50.55Z"/><path class="cls-4" d="M134.16,24.2a17.13,17.13,0,0,1-1.31,6.27,42.36,42.36,0,0,1-1.7,3.91,22,22,0,0,1-4.05,5.8c-.62.61-1.35,1.11-2,1.66l-.25-.19c.23-1,.43-2,.65-3,.38-1.22.79-2.43,1.24-3.63a23.1,23.1,0,0,1,5.35-8.86C132.7,25.55,133.4,24.82,134.16,24.2Z"/><path d="M127.57,44.6a3.14,3.14,0,0,0-.12.78c0,.07,0,.14,0,.21a14.58,14.58,0,0,1-3,1.24,1.24,1.24,0,0,0-.55.39l-.52-.77c.6-2.62,1.28-5.23,2.09-7.8-.22,1-.42,2-.65,3l.25.19c.68-.55,1.41-1.05,2-1.66a22,22,0,0,0,4.05-5.8l.49.24a53.87,53.87,0,0,0-4,9.91h0l-.08.07Z"/><path d="M132.22,52.08a6.77,6.77,0,0,0-.79,1.16c-.32.16-.64.33-1,.47A10.6,10.6,0,0,1,132.22,52.08Z"/><path d="M130.87,22.25a8,8,0,0,0-1,1.5c-2.27,4.74-3.36,9.82-4.44,14.9-.81,2.57-1.49,5.18-2.09,7.8L122,44.33l-.53-.12a92.55,92.55,0,0,1,3.61-12.69c1.22-3.27,2.9-7.15,5.45-9.63Z"/><path d="M129.55,54.88a13.26,13.26,0,0,1,.91-1.17c.33-.14.65-.31,1-.47a15.35,15.35,0,0,0-1.57,4.53l-2.53,1.1c0-.09,0-.18,0-.27h0l.35-.14A14.13,14.13,0,0,1,129.55,54.88Z"/><path d="M130.74,41.42c-.16.68-.31,1.36-.47,2a14.21,14.21,0,0,1-2.85,2.11,1,1,0,0,0,0-.19c.06-.28.14-.56.21-.85h0a12.47,12.47,0,0,0,1.22-1.2C129.52,42.69,130.15,42.06,130.74,41.42Z"/><path d="M130.46,53.71a13.26,13.26,0,0,0-.91,1.17l-.89-.51A12.06,12.06,0,0,0,130.46,53.71Z"/><path d="M128.66,54.37l.89.51a14.13,14.13,0,0,0-1.83,3.58l-.35.14c.21-1.22.41-2.41.63-3.6A1,1,0,0,1,128.66,54.37Z"/><path class="cls-12" d="M127.33,58.87l2.53-1.1a24.91,24.91,0,0,0-.48,4.18l-.31.13c-.72.3-1.51.49-2.4.78.22-1.38.44-2.7.66-4Z"/><path class="cls-12" d="M129.07,62.08l.08.19c-.77.32-1.28.51-1.28.51-.92.19-2,.66-3,1a.82.82,0,0,0-.63.66c0,.2-.07.41-.11.61l-2.39-3.59h0a.69.69,0,0,1,.35-.42c1-.31,2.22-.93,3.25-1.27l2-.86c-.22,1.29-.44,2.61-.66,4C127.56,62.57,128.35,62.38,129.07,62.08Z"/><path d="M128,53.34l.68,1A1,1,0,0,0,128,55c-.22,1.19-.42,2.38-.63,3.6h0c-.71.29-1.49.48-2.37.76.31-1.81.58-3.53.87-5.21C126.36,54,127.08,53.7,128,53.34Z"/><path class="cls-11" d="M126.53,51.18,128,53.34c-.9.36-1.62.64-2.11.81.15-.89.31-1.77.47-2.65a.64.64,0,0,1,.19-.32Z"/><path d="M127.58,44.6l.08-.07c-.07.29-.15.57-.21.85a3.14,3.14,0,0,1,.12-.78Z"/><path d="M127.4,45.59c0-.07,0-.14,0-.21a1,1,0,0,1,0,.19Z"/><path class="cls-11" d="M127.4,45.59l0,0c0,.09,0,.14,0,.13Z"/><path class="cls-1" d="M123.9,47.22l2.63,4a.64.64,0,0,0-.19.32c-.16.88-.32,1.76-.47,2.65l-.7.25a22.17,22.17,0,0,1-2.72.91c.46-2.78.87-5.32,1.33-7.86A.64.64,0,0,1,123.9,47.22Z"/><path class="cls-6" d="M115.57,91l.17,0c-.8,3.26-1.51,6.55-2.43,9.77a43.4,43.4,0,0,1-2.35,6.37,8.27,8.27,0,0,1-2.19,2.51.92.92,0,0,1-.59.27c-.34,0-.57-.32-.51-.91a15.35,15.35,0,0,1,.56-3.33c.06-.18.13-.35.19-.53l.18-.16c2.53-2.33,3.92-5.37,5.12-8.5C114.42,94.72,115,92.88,115.57,91Z"/><path d="M113.77,87.48l.31.08c-.8,3.26-1.51,6.54-2.43,9.77l-.18.61a67.59,67.59,0,0,0-2.9,6.85h0a12.67,12.67,0,0,1-1.22,1.21,7.94,7.94,0,0,1-.86.46c-.32,0-.53-.34-.47-.9a14.77,14.77,0,0,1,.56-3.33,69.79,69.79,0,0,1,6.94-14.44c0-.06.09-.11.13-.16S113.73,87.54,113.77,87.48Z"/><path d="M113.13,87.23l.51.41s-.09.1-.13.16a69.79,69.79,0,0,0-6.94,14.44,14.77,14.77,0,0,0-.56,3.33c-.06.56.15.88.47.9a6.2,6.2,0,0,1-3.84.39,4.86,4.86,0,0,1-1-.28c.76-1.49,2.09-2.8,2.83-4.39l0,0a8.29,8.29,0,0,0,2.18-2.52,45,45,0,0,0,2.36-6.36c.06-.23.13-.45.19-.68A52.56,52.56,0,0,1,113.13,87.23Z"/><path d="M111.65,76.53l.16-.17a18.65,18.65,0,0,1-1.4,1.55C110.81,77.45,111.23,77,111.65,76.53Z"/><path class="cls-1" d="M111.53,83.51c-.75,3-1.42,6.08-2.24,9.09a52.74,52.74,0,0,0-4.61,9.2c-.05.13-.11.26-.17.39-.59.47-1.15.2-1.05-.67a15.35,15.35,0,0,1,.56-3.33A69.28,69.28,0,0,1,111,83.75a3.65,3.65,0,0,1,.26-.32Z"/><path d="M108.57,104.79a67.59,67.59,0,0,1,2.9-6.85,45.25,45.25,0,0,1-2.17,5.75A5.26,5.26,0,0,1,108.57,104.79Z"/><path d="M111,83.14l.26.29a3.65,3.65,0,0,0-.26.32A69.28,69.28,0,0,0,104,98.19a15.35,15.35,0,0,0-.56,3.33c-.1.87.46,1.14,1.05.67-.74,1.59-2.07,2.9-2.83,4.39a4.54,4.54,0,0,1-2.9-4.27c0-.38,0-.75,0-1.13h0c.1-.31.29-.75.64-1.65,1.89-4.92,5.84-10.47,9.73-15.13a6.89,6.89,0,0,0,1.43-.93Z"/><path class="cls-1" d="M109.29,92.6c-.06.23-.13.45-.19.68a45,45,0,0,1-2.36,6.36,8.29,8.29,0,0,1-2.18,2.52l0,0c.06-.13.12-.26.17-.39A52.74,52.74,0,0,1,109.29,92.6Z"/><path d="M105.32,44.77a4.91,4.91,0,0,1,3.75,2.47,4.42,4.42,0,0,0-2.48-1.53c-2.46-.29-3.53,3.22-5.7,4.48-4,2.27-6.3,5.89-8,9.92A42.31,42.31,0,0,1,88.12,68c-1.08,1.49-2.18,3-3.22,4.48a15.2,15.2,0,0,1-2.8,2.81c0-.38.06-.75.11-1.12.25-1.68.53-3.36.83-5l.16-.21a75.63,75.63,0,0,0,7.1-12.83c.2-.46.4-.92.62-1.36a2,2,0,0,0,1.45-2,2.15,2.15,0,0,0-.09-.53,17.16,17.16,0,0,1,6-6.07A11,11,0,0,1,105.32,44.77Z"/><path d="M108.56,104.8c0,.13-.09.26-.14.4a10.14,10.14,0,0,1-1.08.81A12.67,12.67,0,0,0,108.56,104.8Z"/><path class="cls-6" d="M108.42,105.2c-.06.18-.13.35-.19.53a15.35,15.35,0,0,0-.56,3.33c-.06.59.17.91.51.91l.23.79a6.21,6.21,0,0,1-3.22.15c-1.42-.28-2.83-.36-4.1-1.91h0a4.62,4.62,0,0,1,.59-2.42,4.86,4.86,0,0,0,1,.28,6.2,6.2,0,0,0,3.84-.39.91.91,0,0,0,.63-.26l.23-.2A10.14,10.14,0,0,0,108.42,105.2Z"/><path class="cls-5" d="M107.34,106l-.23.2a.91.91,0,0,1-.63.26A7.94,7.94,0,0,0,107.34,106Z"/><path d="M106.51,56.84c-.1.26-.2.52-.31.78l0,0A8.38,8.38,0,0,0,106.51,56.84Z"/><path d="M106.16,57.64l0,0a19,19,0,0,1-4.63,6.77A20.12,20.12,0,0,1,102.65,62,14.22,14.22,0,0,0,106.16,57.64Z"/><path d="M109.15,84.4c-3.89,4.66-7.84,10.21-9.73,15.13-.35.9-.54,1.34-.64,1.65a21.66,21.66,0,0,1,1.69-6.93,52.57,52.57,0,0,1,4.47-9A9.7,9.7,0,0,0,109.15,84.4Z"/><path d="M105.43,58.22a3.8,3.8,0,0,1,.73-.58A14.22,14.22,0,0,1,102.65,62,17.12,17.12,0,0,1,105.43,58.22Z"/><path class="cls-4" d="M103.45,49.32c.71-.33,1.14,0,1.06.77a16.75,16.75,0,0,1-.3,1.86,6.28,6.28,0,0,1-1.66,1.73,17.39,17.39,0,0,0-6.25,6.39,20.72,20.72,0,0,1,4.91-9.39,2.85,2.85,0,0,1,.49-.42A12.24,12.24,0,0,1,103.45,49.32Z"/><path class="cls-4" d="M104.21,52a7.44,7.44,0,0,1-.25.84A21.61,21.61,0,0,1,101.82,57,17.34,17.34,0,0,1,99,60.37a19,19,0,0,1-2.85,1.83l-.28-.33q.21-.9.45-1.8a17.39,17.39,0,0,1,6.25-6.39A6.28,6.28,0,0,0,104.21,52Z"/><path d="M102.65,62a20.12,20.12,0,0,0-1.08,2.36h0a.61.61,0,0,1-.14.07c-.32.05-1-.4-1.25-.24l-.06,0h0l1-.72Z"/><path d="M101.73,57.28l-.09.15Z"/><path class="cls-11" d="M101.56,64.39s0,0,0,0a.14.14,0,0,1-.11,0A.61.61,0,0,0,101.56,64.39Z"/><path d="M101.35,57.89l-.24.44Z"/><path class="cls-6" d="M101.68,106.58a4.62,4.62,0,0,0-.59,2.42,13.45,13.45,0,0,1-2.25-5.26c-.09-1.85-.24-2-.06-2.56,0,.38,0,.75,0,1.13A4.54,4.54,0,0,0,101.68,106.58Z"/><path d="M100.23,73.66l.09.14-.45,0a16.12,16.12,0,0,0,0,2.61A2.48,2.48,0,0,1,99,75.38a8.09,8.09,0,0,1-.72-2.18A4.32,4.32,0,0,0,100.23,73.66Z"/><path class="cls-2" d="M98.07,70.13l2.16,3.53a4.32,4.32,0,0,1-2-.46A14.35,14.35,0,0,1,98.07,70.13Z"/><path d="M100.32,78.21a11.14,11.14,0,0,1-9.77-4.52l.62-.94s0,0,0,0l0,0a6,6,0,0,1-.89-.81,76.32,76.32,0,0,0,4-7.9l1.19,2a10.69,10.69,0,0,0,.89,5.35,4.1,4.1,0,0,0,1.83,1.87A8.09,8.09,0,0,0,99,75.38a2.48,2.48,0,0,0,.93,1.07A7,7,0,0,0,100.32,78.21Z"/><path d="M99.72,64c-.24-.07-.09.25-.76-.24.08-.26.15-.53.24-.8C100.22,63.6,99.23,63.49,99.72,64Z"/><path class="cls-3" d="M95.52,66l2.55,4.15a14.35,14.35,0,0,0,.17,3.07,4.1,4.1,0,0,1-1.83-1.87A10.69,10.69,0,0,1,95.52,66Z"/><path class="cls-11" d="M91.4,76l.91,2.29a7.87,7.87,0,0,1-.39-.7h0a.06.06,0,0,1,0,0C91.84,77.39,91.62,76.71,91.4,76Z"/><path d="M92.28,52.21a2.15,2.15,0,0,1,.09.53,2,2,0,0,1-1.45,2A24.92,24.92,0,0,1,92.28,52.21Z"/><path class="cls-10" d="M91.91,77.58s0,0,0,0a19.58,19.58,0,0,1-1.55,2.18,44.88,44.88,0,0,1-3.93,4.33c-6.26,5.71-11.29-.16-12.38-5.51,2.08,3.3,5.67,5.43,9.76,2.73q.47-.31,1-.72a44.76,44.76,0,0,0,3.93-4.32,28.35,28.35,0,0,0,1.76-2.5c.13.32.27.64.43,1L91,75h0A10.36,10.36,0,0,0,91.91,77.58Z"/><path class="cls-11" d="M91.4,76c.22.68.44,1.36.51,1.55A10.36,10.36,0,0,1,91,75l.38,1Z"/><path d="M91.2,72.71s0,0,0,0h0Z"/><path d="M91.17,72.74h0l-.62.94-.17-.25h0l-.26-.65c0-.13-.07-.27-.1-.4l.26-.45A6,6,0,0,0,91.17,72.74Z"/><path class="cls-11" d="M91,75l-.11-.27a1.29,1.29,0,0,0,.09.16h0A.3.3,0,0,0,91,75Z"/><path class="cls-5" d="M90.42,48.12a18.19,18.19,0,0,1,1.86,4.09,24.92,24.92,0,0,0-1.36,2.49,2.64,2.64,0,0,1-.77.12c-.64,0-1.28,0-1.92,0H86.52l-2.09-3.24.06-.25h4a2.08,2.08,0,0,0,2.22-2.08A3.64,3.64,0,0,0,90.42,48.12Z"/><path class="cls-5" d="M90.5,73.75l.4,1c-.16-.31-.3-.63-.43-1h0Z"/><path class="cls-5" d="M90.55,73.69l0,.06-.12-.31Z"/><path class="cls-5" d="M90.38,73.44l.12.31h0l0,0a4.6,4.6,0,0,1-.19-.52l.1.15Z"/><path d="M90.12,72.78l.26.65-.1-.15h0C90.22,73.1,90.16,72.94,90.12,72.78Z"/><path d="M90.28,71.93l-.26.45c-.07-.28-.13-.56-.18-.85C89.83,71.48,90,71.68,90.28,71.93Z"/><path d="M90.12,72.78c0,.16.1.32.15.49-.13-.22-.26-.44-.38-.67h0a1,1,0,0,1,.1-.17Z"/><path d="M90.12,72.78,90,72.43s0,0,0-.05C90.05,72.51,90.08,72.65,90.12,72.78Z"/><path d="M88.81,69.47l1.18,3a1,1,0,0,0-.1.17A11.12,11.12,0,0,1,88.81,69.47Z"/><path class="cls-5" d="M88.81,69.47l-.26-.67.09-.14c.07.29.1.41.12.54S88.79,69.38,88.81,69.47Z"/><path class="cls-5" d="M87.89,40.37a6.91,6.91,0,0,1,.76,4.57,7,7,0,0,0-.85-1h0a2.14,2.14,0,0,0-1.13-.8.24.24,0,0,0,0-.08,9.5,9.5,0,0,0,.1-5C87.26,39,87.69,40,87.89,40.37Z"/><path class="cls-8" d="M88.65,44.94h0c0,.33-.1.67-.16,1a.51.51,0,0,0-.17,0c-.48,0-.43,1.36-.45,2.61h0c-.18.66-.36,1.33-.54,2v.77H84.49l-.06.25h0l-2.58-4,.09-.33H84c.56,0,1.11,0,1.66,0h.26a2.08,2.08,0,0,0,2.22-2.08A2.17,2.17,0,0,0,87.8,44,7,7,0,0,1,88.65,44.94Z"/><path d="M88.26,68.06l.29.74c-.84,1.24-1.54,2.41-2.4,3.46a43.4,43.4,0,0,1-3.92,4.32l-.16.14q0-.73,0-1.47a15.2,15.2,0,0,0,2.8-2.81c1-1.51,2.14-3,3.22-4.48l.13.1Z"/><path class="cls-8" d="M88.32,45.92a.51.51,0,0,1,.17,0c0,.21-.09.42-.13.63-.15.65-.32,1.29-.49,2C87.89,47.28,87.84,45.91,88.32,45.92Z"/><path d="M87.8,44a2.17,2.17,0,0,1,.35,1.23,2.08,2.08,0,0,1-2.22,2.08h-.26v-.2c.66,0,.58-1.57.7-2.64h0v0c.07-.26.13-.52.2-.78a.29.29,0,0,1,.28-.18,1.66,1.66,0,0,1,1,.51Z"/><path d="M86.67,43.16a2.14,2.14,0,0,1,1.13.8,1.66,1.66,0,0,0-1-.51.29.29,0,0,0-.28.18C86.6,43.47,86.64,43.31,86.67,43.16Z"/><path class="cls-8" d="M86.79,38.12a9.5,9.5,0,0,1-.1,5,.24.24,0,0,1,0,.08A2.64,2.64,0,0,0,85.9,43c-.89,0-1.77,0-2.78,0,.36-1.41.73-2.69,1-4a14.35,14.35,0,0,0,.35-2.23,1,1,0,0,1,1.05-.39c.35.1.81.87,1.25,1.71Z"/><path d="M86.67,43.16c0,.15-.07.31-.1.47a2,2,0,0,0-.2.78v0h0c-.23.85-.46,1.72-.7,2.64v.2c-.55,0-1.1,0-1.66,0H81.94l-.09.33-.44-.7c.5-2,1-4,1.53-6,.32-1.2.78-3.27,1.55-4.16A14.35,14.35,0,0,1,84.14,39c-.29,1.31-.66,2.59-1,4,1,0,1.89,0,2.78,0A2.64,2.64,0,0,1,86.67,43.16Z"/><path class="cls-2" d="M84.43,51.59l2.09,3.24h-.36c-.51,2-1.1,4-1.5,6-.55,2.75-1.12,5.5-1.62,8.25a32.42,32.42,0,0,1-2.62,3.23,13.75,13.75,0,0,1,.13-1.7c.65-4.45,1.56-8.86,2.45-13.27.39-2,.94-3.85,1.43-5.77Z"/><path d="M86.57,43.63c-.07.26-.13.52-.2.78A2,2,0,0,1,86.57,43.63Z"/><path class="cls-8" d="M86.23,36.87a6.31,6.31,0,0,1,.56,1.25c-.44-.84-.9-1.61-1.25-1.71a1,1,0,0,0-1.05.39A6.62,6.62,0,0,0,84,33.38C84.89,34.64,86,36.44,86.23,36.87Z"/><path d="M85.67,47.08c.24-.92.47-1.79.7-2.64C86.25,45.51,86.33,47.08,85.67,47.08Z"/><path d="M81.41,46.92c-.07.28-.15.55-.22.83-.23.89-.24,2.11-.82,2.56s-1.82.21-2.76.26H77.5a2.21,2.21,0,0,0-1.65.76h-.07a2.93,2.93,0,0,1-1.54-.5c.2-.88.39-1.76.59-2.63.06-.27.09-.55.15-.91l.18-1c1.51.37,3.18.77,3.54.49.59-.44.6-1.67.83-2.55.59-2.27,1.14-4.54,1.75-6.8.45-1.65,0-5.75,1.5-5.33A4,4,0,0,1,84,33.38a6.62,6.62,0,0,1,.52,3.42c-.77.89-1.23,3-1.55,4.16C82.4,42.94,81.91,44.93,81.41,46.92Z"/><path class="cls-3" d="M81.85,47.62l2.58,4c-.49,1.92-1,3.82-1.43,5.77-.89,4.41-1.8,8.82-2.45,13.27a13.75,13.75,0,0,0-.13,1.7l-.82.88c-.79.82-1.39.63-1.49-.49A26.32,26.32,0,0,1,78,66.58c.53-3.64,1.24-7.26,2-10.87l.48-2.4C80.83,51.39,81.38,49.51,81.85,47.62Z"/><path class="cls-6" d="M83.58,81l.24.37c-4.09,2.7-7.68.57-9.76-2.73h0l0-.14a9.56,9.56,0,0,1-.17-1.94,5.94,5.94,0,0,0,7.07,1h0a6.19,6.19,0,0,0,1.14-.8c0,1.18.15,2.37.25,3.54C82.42,81.27,82.91,81.53,83.58,81Z"/><path d="M83.68,32.82a5,5,0,0,1,.29.56,4,4,0,0,0-1.19-1.25c-1.46-.42-1,3.68-1.5,5.33-.61,2.26-1.16,4.53-1.75,6.8-.23.88-.24,2.11-.83,2.55-.36.28-2-.12-3.54-.49a13.32,13.32,0,0,0-2.45-.49s-1-.55-1.08-.55a.37.37,0,0,0-.39.32,2.43,2.43,0,0,1,0-.61,2,2,0,0,1,2.1-2h.1c1-.06,2.13.21,2.76-.27s.59-1.67.83-2.56c.58-2.26,1.13-4.53,1.74-6.79.45-1.65,1.59-2.5,3-2.07A3.59,3.59,0,0,1,83.68,32.82Z"/><path d="M81.41,46.92l.44.7c-.47,1.89-1,3.77-1.41,5.69L80,55.71l-.88-.18c0-.21.07-.43.11-.71-.62,0-1.19,0-1.75,0a2.87,2.87,0,0,1-.61-.12c.19-.82.37-1.64.55-2.46.06-.27.09-.55.15-.91-.6,0-1.15,0-1.68,0a2.21,2.21,0,0,1,1.65-.76h.11c.94,0,2.13.21,2.76-.26s.59-1.67.82-2.56C81.26,47.47,81.34,47.2,81.41,46.92Z"/><path d="M80.93,77.52h0a5.94,5.94,0,0,1-7.07-1c.07-3.2,1.86-5.51,2.58-9.07.79-3.92,1.73-7.82,2.6-11.73a1.42,1.42,0,0,0,0-.2l.88.18c-.72,3.61-1.43,7.23-2,10.87a26.32,26.32,0,0,0,.11,6.14c.1,1.12.7,1.31,1.49.49l.82-.88a36.59,36.59,0,0,0,.24,4.44c0,.36.06.47.1.43Z"/><path d="M79.19,54.82c0,.28-.07.5-.11.71a1.42,1.42,0,0,1,0,.2c-.87,3.91-1.81,7.81-2.6,11.73-.72,3.56-2.51,5.87-2.58,9.07a6.73,6.73,0,0,1-1.5-2.23C71.54,70,73.92,68.2,74.78,64c.62-3.1,1.34-6.18,2-9.26a2.87,2.87,0,0,0,.61.12C78,54.86,78.57,54.82,79.19,54.82Z"/><path d="M77.53,51.33c-.06.36-.09.64-.15.91-.18.82-.36,1.64-.55,2.46a2.1,2.1,0,0,1-1.43-2.16,2,2,0,0,1,.45-1.21C76.38,51.36,76.93,51.33,77.53,51.33Z"/><path class="cls-10" d="M72.26,20.09C76.92,24,77.05,28.73,77,31.44c-.18,3.07-2.31,6.2-4.38,8.78-1.39,1.71-2.91,3.3-4.42,4.91a2.26,2.26,0,0,0-.41.57L66,42.94h0a1.53,1.53,0,0,1,.53-1.3l1.13-1.21C68.8,39.23,69.92,38,71,36.72c2.08-2.58,3.68-5.41,3.75-8.85A9.94,9.94,0,0,0,72.26,20.09Z"/><path d="M75.78,51.32h.07a2,2,0,0,0-.45,1.21,2.1,2.1,0,0,0,1.43,2.16c-.71,3.08-1.43,6.16-2,9.26-.86,4.24-3.24,6-2.42,10.34a7.85,7.85,0,0,1-.48-1.58,33.07,33.07,0,0,1,.34-12.81c.62-3,1.32-6.07,2-9.09A2.93,2.93,0,0,0,75.78,51.32Z"/><path d="M75.16,46.32l-.18,1c-.63,0-1.2,0-1.76,0a2.08,2.08,0,0,1-2-1.67.37.37,0,0,1,.39-.32s1,.55,1.08.55A13.32,13.32,0,0,1,75.16,46.32Z"/><path class="cls-5" d="M75,47.28c-.06.36-.09.64-.15.91-.2.87-.39,1.75-.59,2.63a4.52,4.52,0,0,1-1.06-1.2c-.66-1-2.09-3.2-1.94-4a2.08,2.08,0,0,0,2,1.67C73.78,47.31,74.35,47.28,75,47.28Z"/><path class="cls-6" d="M72.26,20.09a9.94,9.94,0,0,1,2.44,7.78C74.63,31.31,73,34.14,71,36.72c-1,1.29-2.15,2.51-3.28,3.71l-.75-.52a18.66,18.66,0,0,0,4.36-6.59,9.61,9.61,0,0,0,.34-3.22,2,2,0,0,0-.69-1.33,12,12,0,0,0,1.22-4.95,8.65,8.65,0,0,0-.94-4.47,1.5,1.5,0,0,1,.42.24C71.85,19.75,72.06,19.92,72.26,20.09Z"/><path class="cls-6" d="M74,78.47l0,.14a12.73,12.73,0,0,1-1.7-4.31,6.73,6.73,0,0,0,1.5,2.23A9.56,9.56,0,0,0,74,78.47Z"/><path class="cls-5" d="M72.26,20.09c-.2-.17-.41-.34-.63-.5a1.5,1.5,0,0,0-.42-.24h0a5.1,5.1,0,0,0-.63-.89A11.19,11.19,0,0,1,72.26,20.09Z"/><path d="M70,26.61a12.07,12.07,0,0,1-.09,2.08h0a2.38,2.38,0,0,0-.92.38,4,4,0,0,0-1.17,1.71,13.89,13.89,0,0,0-.8,3.56c-.57.65-1.14,1.27-1.73,1.9a27.94,27.94,0,0,1,.46-7.66,12.47,12.47,0,0,0,1.35-2.8v0a1.24,1.24,0,0,1,.22-.18,2.43,2.43,0,0,1,1.84-.38A1.83,1.83,0,0,1,70,26.61Z"/><path d="M69.87,28.69a6.26,6.26,0,0,1-.25,1.14,14.16,14.16,0,0,1-2.17,4h0c-.15.18-.3.36-.46.53a13.89,13.89,0,0,1,.8-3.56A4,4,0,0,1,69,29.07,2.38,2.38,0,0,1,69.87,28.69Z"/><path class="cls-5" d="M67.69,46.59c.92,6.93,2.22,13.83,2,20.86a34.83,34.83,0,0,1-5,17.39c-3.42,5.55-8.52,8.63-14.79,9.86-4.84.94-9.71,1.06-14.35-.91a45.58,45.58,0,0,1-5.16-2.94l-2-3.21.06-.43a50,50,0,0,0,5.4,3.08,22.67,22.67,0,0,0,12.42,1.24c.65-.09,1.29-.2,1.93-.33L49.38,91A21,21,0,0,0,63,81.34,34.7,34.7,0,0,0,68,64c.24-7-1.06-13.94-2-20.86,0-.06,0-.11,0-.16l1.78,2.76A1.56,1.56,0,0,0,67.69,46.59Z"/><path class="cls-7" d="M66,43.1C67,50,68.25,56.92,68,64a34.7,34.7,0,0,1-5,17.38A21,21,0,0,1,49.38,91l-.25-1.11a15.4,15.4,0,0,0,8.84-7,29.24,29.24,0,0,0,2.76-6,35,35,0,0,0,4.73-16.93c.24-7-1.06-13.94-2-20.86v0L66,42.94h0C66,43,66,43,66,43.1Z"/><path class="cls-6" d="M66.92,39.91l.75.52-1.13,1.21a1.53,1.53,0,0,0-.53,1.3L63.47,39A1.52,1.52,0,0,1,64,37.59c.42-.45.85-.9,1.26-1.35,0,.06,0,.11,0,.17.6-.66,1.18-1.32,1.71-2A47.41,47.41,0,0,0,66.92,39.91Z"/><path class="cls-6" d="M67.44,33.81c-.15.21-.31.42-.47.62a.28.28,0,0,1,0-.09C67.14,34.17,67.29,34,67.44,33.81Z"/><path class="cls-1" d="M67.41,22.86a8.78,8.78,0,0,1-.34,2.9,4.25,4.25,0,0,0-.95,1.53,12.82,12.82,0,0,0-.41,1.29,27,27,0,0,1-3,3.78c0-1.16-.07-2.3-.05-3.41a8.54,8.54,0,0,1,2.52-3.21A10.61,10.61,0,0,0,67.41,22.86Z"/><path class="cls-1" d="M67.4,22.56c0,.1,0,.2,0,.3a10.61,10.61,0,0,1-2.23,2.88A8.54,8.54,0,0,0,62.66,29a16,16,0,0,1,.91-5.71,4.26,4.26,0,0,1,.79-1.37,2.33,2.33,0,0,1,.37-.34,2.45,2.45,0,0,1,1.85-.38A1.8,1.8,0,0,1,67.4,22.56Z"/><path class="cls-5" d="M67.07,25.76v0a12.47,12.47,0,0,1-1.35,2.8,12.82,12.82,0,0,1,.41-1.29A4.25,4.25,0,0,1,67.07,25.76Z"/><path class="cls-5" d="M67,34.34a.28.28,0,0,0,0,.09h0c-.53.66-1.11,1.32-1.71,2,0-.06,0-.11,0-.17C65.84,35.61,66.41,35,67,34.34Z"/><path d="M63.47,39.05c.93,6.92,2.23,13.83,2,20.86a35,35,0,0,1-4.73,16.93,29.79,29.79,0,0,0,1.45-8.78c.06-4.71-.4-9.43-.65-14.14,0-.82-.18-1.64-.3-2.63l-1.25,1c0-.64-.08-1.27-.11-1.91,0-.82-.18-1.63-.3-2.63L57.51,49.5l-.06-.92c1-.82,1.93-1.65,2.89-2.48a2,2,0,0,0,.3-1.42,49.85,49.85,0,0,1,.11-8.38l1,.11L63.47,39Z"/><path d="M61.53,53.92c.25,4.71.71,9.43.65,14.14a29.79,29.79,0,0,1-1.45,8.78c-.09.15-.18.3-.28.45-3.42,5.55-8.51,8.64-14.78,9.86l-.6.11L45,86.93a15.67,15.67,0,0,0,11.31-7.58,29.17,29.17,0,0,0,4.2-14.79c.07-4.07-.28-8.15-.53-12.23l1.25-1C61.35,52.28,61.49,53.1,61.53,53.92Z"/><path class="cls-7" d="M60.45,77.29c.1-.15.19-.3.28-.45a29.24,29.24,0,0,1-2.76,6,15.4,15.4,0,0,1-8.84,7,17.93,17.93,0,0,1-3,.66c-.52.08-1,.13-1.58.17-3.5.24-6.89-.21-9.86-2.31l-.18-.11a13.73,13.73,0,0,1-1.78-1.47,24.59,24.59,0,0,0,12.32.48l.6-.11C51.94,85.93,57,82.84,60.45,77.29Z"/><path d="M60,52.33c.25,4.08.6,8.16.53,12.23a29.17,29.17,0,0,1-4.2,14.79A15.67,15.67,0,0,1,45,86.93c-.68.11-1.38.19-2.09.24-3.5.25-6.89-.21-9.86-2.31l-.18-.11c-.3-.22-.57-.41-.81-.61a15.71,15.71,0,0,1,.78-2,16.14,16.14,0,0,0,7.51,1c5.73-.4,10.37-2.81,13.41-7.83a28.73,28.73,0,0,0,3.9-11,30,30,0,0,0,.3-3.81c0-2.12,0-4.24-.16-6.37h0Z"/><path d="M59.87,50.42c0,.64.07,1.27.11,1.91L57.8,54.14c-.09-1.54-.19-3.09-.29-4.63h0l2.06-1.71C59.69,48.79,59.83,49.6,59.87,50.42Z"/><path class="cls-13" d="M57.8,54.14h0L55.62,56c.09.16.18.32.26.49l-.82-1.36h0A13.05,13.05,0,0,0,54,52.45l3.55-2.94C57.61,51.05,57.71,52.6,57.8,54.14Z"/><path class="cls-9" d="M57.51,49.5h0L54,52.45a13.05,13.05,0,0,1,1.1,2.62l-1.81-3q2.11-1.73,4.2-3.48Z"/><path class="cls-1" d="M57.32,46.37c0,.74.08,1.47.13,2.21q-2.09,1.76-4.2,3.48l-.88-1.48a12.36,12.36,0,0,0-.85-2c1.86-1.52,3.71-3,5.53-4.61C57.16,44.88,57.28,45.62,57.32,46.37Z"/><path class="cls-10" d="M55.9,56.47a13.16,13.16,0,0,1,1.21,7.78,20.31,20.31,0,0,1-.76,3.36A11.85,11.85,0,0,1,44.9,76.17a3.11,3.11,0,0,1-2.75-1.83c-.57-.9-1.52-2.3-2.09-3.44a.08.08,0,0,1,0,0c.19.28.36.51.47.64a2.75,2.75,0,0,0,2.67,1.17,11.84,11.84,0,0,0,11.45-8.56,15.4,15.4,0,0,0,.37-9l.82,1.36Z"/><path class="cls-1" d="M57,43.74l0,.27c-1.82,1.56-3.67,3.09-5.53,4.61a1.51,1.51,0,0,1-.11-.22Z"/><path class="cls-6" d="M55.06,55.08a15.4,15.4,0,0,1-.37,9,11.84,11.84,0,0,1-11.45,8.56,2.75,2.75,0,0,1-2.67-1.17c-.11-.13-.28-.36-.47-.64l.09-.12c3.44.44,7.34-.12,9.11-2.59a11.33,11.33,0,0,0,2.25-6.53h0a12.55,12.55,0,0,0,.58-1.56,16.2,16.2,0,0,0,.69-7.75.58.58,0,0,0,.25-.11l.18-.14,1.81,3Z"/><path class="cls-1" d="M52.37,50.58l.88,1.48-.18.14a.58.58,0,0,1-.25.11A13.34,13.34,0,0,0,52.37,50.58Z"/><path d="M52.37,50.58l-1.08-1.8.12-.07.11-.09A12.36,12.36,0,0,1,52.37,50.58Z"/><path d="M51.44,59.87a11.67,11.67,0,0,1,.11,1.75h0a11.47,11.47,0,0,1-9.38,6.95l.25-.26c.41-.44.83-.86,1.25-1.29h0a6.6,6.6,0,0,0,4-2.37,12.6,12.6,0,0,0,1.7-3.24c.58-.59,1.17-1.16,1.75-1.74Z"/><path d="M49.78,56.38a10.87,10.87,0,0,1-.45,5c-1.89,1.86-3.79,3.71-5.66,5.61h0a14.62,14.62,0,0,1-4.72.3c.71-.78,1.43-1.55,2.16-2.3s1.6-1.65,2.41-2.45c2.07-2.08,4.17-4.12,6.25-6.19Z"/><path class="cls-7" d="M49.13,89.84,49.38,91l-1.16.25c-.64.13-1.28.24-1.93.33l-.14-1A17.93,17.93,0,0,0,49.13,89.84Z"/><path d="M49.33,61.41a12.6,12.6,0,0,1-1.7,3.24,6.6,6.6,0,0,1-4,2.37C45.54,65.12,47.44,63.27,49.33,61.41Z"/><path class="cls-11" d="M46.73,52.28l-.23.2.21-.21Z"/><path d="M46.71,52.27l-.21.21,0,0q-1.18,1-2.31,2.1a9.26,9.26,0,0,0-1.3.08c1-1,2.13-2,3.25-3l.06,0C46.43,51.83,46.26,52,46.71,52.27Z"/><path class="cls-7" d="M46.15,90.5l.14,1a22.67,22.67,0,0,1-12.42-1.24,50,50,0,0,1-5.4-3.08l-.06.43L25.9,83.52h0s0,0,0,0,0,0,0,0l0-.3a52.07,52.07,0,0,0,5.41,3.08c.47.21,1,.38,1.43.54a13.73,13.73,0,0,0,1.78,1.47l.18.11c3,2.1,6.36,2.55,9.86,2.31C45.1,90.63,45.63,90.58,46.15,90.5Z"/><path d="M46.18,51.69h0l-.06,0C45.71,51.47,46.13,51.65,46.18,51.69Z"/><path d="M44.15,54.62q1.13-1.07,2.31-2.1l-2.12,2.09h-.19Z"/><path d="M45,86.93l.07.33a24.59,24.59,0,0,1-12.32-.48,2.41,2.41,0,0,1-.69-2.64c.24.2.51.39.81.61l.18.11c3,2.1,6.36,2.56,9.86,2.31C43.62,87.12,44.32,87,45,86.93Z"/><path d="M44.15,54.62h.19c-2.07,2-4.13,4.07-6.13,6.15a47.78,47.78,0,0,0-9.38,13.36q0-.57.06-1.14A81.66,81.66,0,0,1,44.15,54.62Z"/><path d="M43.67,67c-.42.43-.84.85-1.25,1.29l-.25.26c-.29,0-.59,0-.89.05a3.17,3.17,0,0,1-2.73-.85l.4-.45h0A14.62,14.62,0,0,0,43.67,67Z"/><path d="M42.85,54.7a9.26,9.26,0,0,1,1.3-.08A81.66,81.66,0,0,0,28.89,73v0h0A83.42,83.42,0,0,1,42.85,54.7Z"/><path class="cls-14" d="M40.66,112.9a3.48,3.48,0,0,1,0,2.34,1.93,1.93,0,0,1-.65.62c-.63.4-1.28.41-2.78,0a13.26,13.26,0,0,1-5.6-2.69,19.72,19.72,0,0,1-5.46-8.06,20.18,20.18,0,0,0,3.8,4.56,13.26,13.26,0,0,0,5.6,2.69,4.78,4.78,0,0,0,2.77,0,1.68,1.68,0,0,0,.92-1.07A3.66,3.66,0,0,0,39,109.4l0,0C39.75,110.81,40.57,112.62,40.66,112.9Z"/><path class="cls-5" d="M40.19,70.74l-.09.12a.71.71,0,0,1-.1-.14Z"/><path class="cls-13" d="M40,70.72a1.42,1.42,0,0,0,.08.18,44.71,44.71,0,0,0-7.19,11.15l0,.06a12.4,12.4,0,0,1-2.35-1.3l-.11-.07a14.69,14.69,0,0,1,.82-2.18A41,41,0,0,1,38.35,68,24.16,24.16,0,0,0,40,70.72Z"/><path d="M39.85,64.45c-.64.66-1.26,1.34-1.86,2-.14-.6-.24-1.23-.39-2A7.33,7.33,0,0,0,39.85,64.45Z"/><path class="cls-1" d="M39,109.4a3.66,3.66,0,0,1,.28,1.89,1.68,1.68,0,0,1-.92,1.07,4.78,4.78,0,0,1-2.77,0,13.26,13.26,0,0,1-5.6-2.69,20.18,20.18,0,0,1-3.8-4.56c-.13-.36-.25-.73-.36-1.1a18.82,18.82,0,0,0,1.61,1.61,12.76,12.76,0,0,0,5.29,2.61c.75.92,1.29.69,2,.25a8.76,8.76,0,0,0,1.07-.17,1.58,1.58,0,0,0,1.11-.76h0a3.74,3.74,0,0,1,.77-.05c.23,0,.74.85,1.28,1.86h0Z"/><path d="M39,67.32l-.4.45a2.26,2.26,0,0,1-.32-.53C38.47,67.28,38.71,67.3,39,67.32Z"/><path class="cls-11" d="M38.55,67.77l-.2.22a2.9,2.9,0,0,1-.31-.77l.19,0A2.26,2.26,0,0,0,38.55,67.77Z"/><path class="cls-1" d="M38.23,67.24l-.19,0a2.9,2.9,0,0,0,.31.77A41,41,0,0,0,31.2,78.56a14.69,14.69,0,0,0-.82,2.18l-.07,0c-3-2.21-3.16-2.8-1.66-6.19l.18-.39a25.37,25.37,0,0,0,.35,4.77A66.33,66.33,0,0,1,38,66.48s0,.08,0,.12A4,4,0,0,0,38.23,67.24Z"/><path d="M36.93,107.54h0a1.58,1.58,0,0,1-1.11.76,8.76,8.76,0,0,1-1.07.17A5.56,5.56,0,0,1,36.93,107.54Z"/><path class="cls-1" d="M33,108.31a4.76,4.76,0,0,0,1.7.17c-.72.44-1.26.67-2-.25Z"/><path d="M32.53,108l.2.26a12.76,12.76,0,0,1-5.29-2.61A18.82,18.82,0,0,1,25.83,104a22.19,22.19,0,0,1-.71-3.2,32.19,32.19,0,0,1,.2-10.23,17.35,17.35,0,0,0,3,9.84,11.34,11.34,0,0,0,1,1.25,15.15,15.15,0,0,0,1.17,2.21A16.16,16.16,0,0,0,32.53,108Z"/><path d="M32.84,82.11a15.71,15.71,0,0,0-.78,2c-1.57-1.23-2-2-1.68-3.4l.11.07A12.4,12.4,0,0,0,32.84,82.11Z"/><path class="cls-14" d="M28.41,87.64l2,3.21-.24-.14c-.15,1.24-.35,2.63-.47,4a23.91,23.91,0,0,0,.4,7.67,10.46,10.46,0,0,1-.75-.74A21.34,21.34,0,0,1,28,91.24C28.1,90,28.27,88.77,28.41,87.64Z"/><path d="M30.06,102.41c.12.49.25,1,.42,1.47a15.15,15.15,0,0,1-1.17-2.21A10.46,10.46,0,0,0,30.06,102.41Z"/><path d="M28.89,73v0c-.31.51-.6,1-.9,1.56Q28.44,73.73,28.89,73Z"/><path class="cls-1" d="M25.83,104c.11.37.23.74.36,1.1a17.9,17.9,0,0,1-1-1.78C25.43,103.56,25.63,103.78,25.83,104Z"/><path class="cls-5" d="M25.89,83.51l0,0h0a0,0,0,0,1,0,0S25.89,83.49,25.89,83.51Z"/></g><g id="Capa_4" data-name="Capa 4"><path class="cls-1" d="M142.94,28.21c2.5,5.75-1.1,12.65-2.63,15.6l-.21.4a25.18,25.18,0,0,1-4.46,5.88l.25.09-2.82.82,1.05-.83a26.14,26.14,0,0,0,5.09-6.42l.21-.4c1.47-2.82,4.91-9.43,2.6-14.74a90.82,90.82,0,0,0-4.71-9.44c-.07-.15-.81-1.91-4.57-2.2a6.32,6.32,0,0,0-5.09,2,22.86,22.86,0,0,0-5.23,8.67c-2,5.44-3,11.2-4,16.77-.26,1.52-.52,3-.8,4.57-.13.73-.25,1.46-.37,2.19-.17,1-.33,2-.54,3.06a2.38,2.38,0,0,1-2.11,1.83h-.31v-1h.22a1.36,1.36,0,0,0,1.22-1c.2-1,.37-2,.53-3,.12-.74.24-1.48.38-2.21.28-1.52.54-3,.8-4.56,1-5.61,2-11.42,4-16.95a23.78,23.78,0,0,1,5.46-9A7.36,7.36,0,0,1,132.81,16c4.46.35,5.36,2.67,5.4,2.77s.56.93,1.43,2.59S141.69,25.35,142.94,28.21Z"/><path class="cls-12" d="M139,53.57c1.32,3,1.57,5.55.74,7.45a4.35,4.35,0,0,1-2.33,2.35,58.16,58.16,0,0,1-8,3.17c-.48.15-1,.38-1.54.6s-1.07.45-1.56.61a2.18,2.18,0,0,0-.06.22l-.64-1a.54.54,0,0,1,.25-.15c.48-.15,1.06-.4,1.62-.63s1.11-.47,1.62-.64A57,57,0,0,0,137,62.46a3.42,3.42,0,0,0,1.83-1.87c.7-1.61.43-3.92-.77-6.68a13.65,13.65,0,0,0-1.45-2.36,2.09,2.09,0,0,0-2-.89l-1.9.6.32-.26,2.82-.82a5.07,5.07,0,0,1,1.13.65A6,6,0,0,1,139,53.57Z"/><path class="cls-6" d="M92.16,77l.2.37a13.68,13.68,0,0,0,12.07,7.34h.91l-.48.77a52.65,52.65,0,0,0-4.47,9,19.52,19.52,0,0,0-1.65,7.86,16.67,16.67,0,0,0,2.46,6.11l0,.09c.87,2.37,3,5,5.31,5.26s4.09.14,5.61-1.26a20.89,20.89,0,0,0,5.18-8.24c2.53-6.6,4-13.87,5.42-21.35.53-2.8.86-4.87,1.22-7.06.28-1.71.57-3.48,1-5.7,0-.07,0-.21.06-.39.23-1.76.39-2.46.67-2.75l.64,1a19.3,19.3,0,0,0-.32,1.92c0,.2,0,.35-.06.42-.4,2.22-.69,4-1,5.69-.36,2.2-.7,4.27-1.23,7.08-1.42,7.54-2.91,14.85-5.46,21.52a22,22,0,0,1-5.44,8.63,6.34,6.34,0,0,1-4.6,1.63,16.37,16.37,0,0,1-1.8-.11c-2.7-.3-5.12-3.17-6.12-5.87a17.27,17.27,0,0,1-2.58-6.55,20.52,20.52,0,0,1,1.72-8.26,53.12,53.12,0,0,1,4.1-8.37A14.56,14.56,0,0,1,92.16,79l-.57-1.74.38-.56Z"/><path class="cls-7" d="M114.32,56.08h0a.25.25,0,0,0-.17.07l-.53.37-.23-.6A45.61,45.61,0,0,0,109.12,48c-2.35-3.59-4.09-3.29-4.11-3.28l-.07,0h-.1a11.21,11.21,0,0,0-6.8,1.8,16,16,0,0,0-5.1,4.74l-.6-.89a16.92,16.92,0,0,1,5.2-4.71,12.18,12.18,0,0,1,7.34-1.94c.52-.09,2.57-.11,5.08,3.73a51,51,0,0,1,4.18,7.59h.18Z"/><path class="cls-7" d="M92,49.88v0c.11.22.2.41.28.59l.06-.08.6.89c-.2.28-.4.57-.59.87l0,0-.84-.54s0,0,0,0c.18-.31-.43-1.42-1.32-2.95a16.46,16.46,0,0,0-1.8-3.33l-.23-.17v-.3a8.9,8.9,0,0,0-.71-4.3c-1-1.93-4.69-7.44-4.73-7.49a3.1,3.1,0,0,0-1.64-1.29,1.7,1.7,0,0,0-1.34.1,2.55,2.55,0,0,0-1.08,1.63c-.37,1.36-.71,2.73-1.06,4.09-.22.9-.45,1.8-.68,2.69-.07.24-.11.51-.16.77a3.11,3.11,0,0,1-.85,2.07,3.42,3.42,0,0,1-2.18.37,8.1,8.1,0,0,0-.85,0h-.11A1.54,1.54,0,0,0,71.14,45a1.65,1.65,0,0,0,.73,1.5l.12.08.06.11a4.47,4.47,0,0,1,.26.55,2.89,2.89,0,0,0,.27.52,1.42,1.42,0,0,1,.16.33,8,8,0,0,0,1.43,2l.15.19,0,.24c-.42,1.83-.74,3.68-1.06,5.47-.23,1.33-.46,2.65-.73,4a30.84,30.84,0,0,0-.4,10.65l.47,2.7c.11.46.23.91.35,1.35l.39,4.25a38.93,38.93,0,0,1-1.72-5.38v0l-.47-2.76c-.14-1.45-.24-2.7-.27-3.9a29.62,29.62,0,0,1,.68-7.08c.26-1.33.5-2.65.73-4,.3-1.73.61-3.51,1-5.28a7.88,7.88,0,0,1-1.42-2.06c0-.06,0-.12-.09-.19a3.67,3.67,0,0,1-.35-.66,1.89,1.89,0,0,0-.16-.35A2.6,2.6,0,0,1,70.15,45a2.44,2.44,0,0,1,.74-1.72,2.84,2.84,0,0,1,1.83-.73l.13.5,0-.5c.3,0,.63,0,1,0a2.86,2.86,0,0,0,1.52-.17c.27-.2.38-.86.48-1.44,0-.29.1-.58.17-.85.23-.89.46-1.79.68-2.68.35-1.38.7-2.75,1.07-4.12a3.47,3.47,0,0,1,1.55-2.23,2.73,2.73,0,0,1,2.11-.19,4.07,4.07,0,0,1,2.2,1.71c.14.21,3.75,5.59,4.78,7.57a9.65,9.65,0,0,1,.83,4.61,18,18,0,0,1,1.9,3.5C91.45,48.89,91.75,49.43,92,49.88Z"/><path class="cls-6" d="M91.59,77.23,92.16,79c-.09-.13-.18-.26-.26-.4-.06.09-.09.16-.12.21a6.71,6.71,0,0,1-.72,1,50.15,50.15,0,0,1-4.28,4.75c-2.36,2.17-4.67,2.94-6.87,2.28-3.1-.94-5.24-4.47-6.62-7.85l-.39-4.25c1.7,6.14,4.39,10.26,7.3,11.14,1.84.56,3.82-.14,5.9-2.06a48.31,48.31,0,0,0,4.19-4.65,4.26,4.26,0,0,0,.61-.82c.09-.15.22-.38.61-1Z"/><path class="cls-6" d="M72.49,19.34a13.81,13.81,0,0,1,5,11.76c-.07,3.48-2.43,6.87-4.74,9.73A19.71,19.71,0,0,1,70.66,43l-.53.48c-.64.58-1.3,1.17-1.92,1.84a.5.5,0,0,0-.12.46l-.69-1.06.08-.09c.65-.69,1.33-1.3,2-1.89A22.3,22.3,0,0,0,72,40.21c2.2-2.73,4.46-6,4.52-9.13a13,13,0,0,0-5.16-11.4Z"/><path class="cls-6" d="M72.49,19.34l-1.15.34c-.33-.28-.7-.56-1.08-.83a.77.77,0,0,0-.5-.18h-.22l-.16-.15a5.27,5.27,0,0,0-1.4-1c-2.35-1.16-4.79-.8-7.26,1.07a9.13,9.13,0,0,0-3,4.58c-1.62,4.76-1.58,9.71-1.34,13.93a2.29,2.29,0,0,1-.47,1.82c-2.27,2-4.55,3.89-7.28,6.12a1.44,1.44,0,0,1-1.47.09,14.42,14.42,0,0,0-7.53-2.2,17.92,17.92,0,0,0-8.19,2.21c-3.41,1.76-6.06,4.66-8.31,9.15a26.63,26.63,0,0,0-1.22,22.34,3.71,3.71,0,0,1,.27,1.25l-1,.3A2.36,2.36,0,0,0,21,77a27.66,27.66,0,0,1,1.25-23.15c2.36-4.68,5.14-7.73,8.75-9.59,6.05-3.11,11.51-3.1,16.7,0a.62.62,0,0,0,.33,0c2.71-2.21,5-4.1,7.24-6.08a1.82,1.82,0,0,0,.14-1c-.26-4.31-.29-9.37,1.38-14.3a10.15,10.15,0,0,1,3.34-5.06c2.76-2.09,5.63-2.49,8.32-1.17a6.55,6.55,0,0,1,1.51,1,1.9,1.9,0,0,1,.9.36C71.44,18.46,72,18.9,72.49,19.34Z"/><path class="cls-6" d="M70.15,66.87c0,.61,0,1.2,0,1.79a33.72,33.72,0,0,1-5.27,17.13c-3.11,5-7.95,8-15.23,9.47A24.41,24.41,0,0,1,35,94.09a19.23,19.23,0,0,1-3.23-1.82L31.34,92l-1.13-1.85.26.15c.67.39,1.26.77,1.82,1.14a19.47,19.47,0,0,0,3.08,1.73,23.45,23.45,0,0,0,14.06,1.11C56.52,92.9,61,90.12,64,85.27a32.69,32.69,0,0,0,5.12-16.64c.21-6.25-.77-13.41-1.63-19.74l-.34-2.52a1.91,1.91,0,0,1,.25-1.65l.69,1.06s0,0,0,0a2.6,2.6,0,0,0,0,.42l.35,2.55A140.43,140.43,0,0,1,70.15,66.87Z"/><path class="cls-1" d="M41.15,111.92c.75,1.61.84,2.83.25,3.62a3.44,3.44,0,0,1-2.63,1,8.65,8.65,0,0,1-1.36-.12c-4.53-.71-6.42-3-6.5-3.09a20.24,20.24,0,0,1-4.85-6.56,19.76,19.76,0,0,1-1.89-3.31,20.77,20.77,0,0,1-4.3-10.12,34.44,34.44,0,0,1,1.21-14.75,2,2,0,0,0,.08-.4l1-.3a3.36,3.36,0,0,1-.14,1,33.4,33.4,0,0,0-1.18,14.32,19.82,19.82,0,0,0,4.13,9.7l.07.11a19.35,19.35,0,0,0,1.86,3.27,19.76,19.76,0,0,0,4.71,6.37,9.8,9.8,0,0,0,6,2.93,3.45,3.45,0,0,0,3-.63c.34-.46.21-1.38-.36-2.6-.8-1.69-3.39-6.88-3.64-7.24a2.46,2.46,0,0,0-2-.76,6.86,6.86,0,0,1-4.42-1.78l-.13-.11,0-.16a19,19,0,0,1-.84-7.45,10.67,10.67,0,0,1,.27-2.19,11.73,11.73,0,0,0,.3-2L29.8,90l1.13,1.74-.35-.21c-.09.37-.09,1.06-.2,1.42a9.17,9.17,0,0,0-.24,2,18.46,18.46,0,0,0,.73,7.11,6.05,6.05,0,0,0,3.69,1.35,4.72,4.72,0,0,1,2.16.65,1.65,1.65,0,0,1,.55.53C37.39,104.8,40.34,110.2,41.15,111.92Z"/><path class="cls-6" d="M30.21,90.15,31.34,92a4.65,4.65,0,0,1-.41-.26L29.8,90v-.08Z"/></g></svg>